<?xml version="1.0" encoding="UTF-8"?>
<!-- Generator: visioncortex VTracer 0.6.3 -->
<svg version="1.1" xmlns="http://www.w3.org/2000/svg" width="1280" height="1280">
<path d="M0 0 C1.37 -0.01 1.37 -0.01 2.76 -0.02 C3.75 -0.02 4.73 -0.01 5.75 -0.01 C6.76 -0.01 7.77 -0.01 8.81 -0.01 C10.96 -0.01 13.1 -0.01 15.24 -0 C18.52 0.01 21.8 -0 25.08 -0.01 C27.16 -0.01 29.24 -0.01 31.31 -0.01 C32.3 -0.01 33.28 -0.01 34.3 -0.02 C35.21 -0.01 36.12 -0.01 37.07 0 C37.87 0 38.68 0 39.5 0 C41.6 0.26 41.6 0.26 44.6 2.26 C44.98 4.83 44.98 4.83 44.98 8.17 C44.99 9.44 45 10.71 45.01 12.02 C45.01 13.44 45 14.86 45 16.28 C45 17.78 45.01 19.28 45.02 20.78 C45.03 24.91 45.03 29.05 45.03 33.18 C45.03 37.63 45.05 42.09 45.06 46.54 C45.08 54.26 45.1 61.98 45.1 69.7 C45.11 80.86 45.13 92.02 45.16 103.18 C45.2 121.29 45.23 139.39 45.25 157.5 C45.27 175.09 45.3 192.69 45.34 210.28 C45.34 211.36 45.34 212.45 45.34 213.56 C45.35 219 45.36 224.44 45.38 229.87 C45.47 275 45.54 320.13 45.6 365.26 C55.5 365.59 65.4 365.92 75.6 366.26 C75.59 361.7 75.59 357.15 75.58 352.45 C75.54 310.72 75.51 268.98 75.5 227.25 C75.49 221.78 75.49 216.32 75.49 210.85 C75.49 209.76 75.49 208.67 75.49 207.55 C75.48 189.91 75.46 172.28 75.44 154.64 C75.42 136.55 75.41 118.46 75.41 100.37 C75.41 89.21 75.4 78.04 75.38 66.87 C75.37 59.22 75.37 51.57 75.37 43.92 C75.37 39.5 75.37 35.08 75.36 30.66 C75.35 26.62 75.35 22.58 75.36 18.54 C75.36 17.07 75.35 15.61 75.35 14.14 C75.34 12.16 75.35 10.17 75.35 8.19 C75.35 6.53 75.35 6.53 75.35 4.84 C75.6 2.26 75.6 2.26 77.6 0.26 C80.01 0.07 82.3 -0 84.71 0.02 C85.45 0.02 86.19 0.01 86.95 0.01 C89.45 0.01 91.94 0.02 94.44 0.03 C96.22 0.03 98.01 0.03 99.79 0.03 C104.64 0.03 109.5 0.04 114.35 0.06 C119.42 0.07 124.48 0.07 129.55 0.07 C139.15 0.08 148.75 0.09 158.36 0.11 C169.28 0.14 180.21 0.15 191.14 0.16 C213.63 0.18 236.11 0.21 258.6 0.26 C258.6 0.59 258.6 0.92 258.6 1.26 C259.45 1.39 260.31 1.52 261.19 1.66 C262.84 1.93 262.84 1.93 264.54 2.2 C265.64 2.37 266.74 2.54 267.88 2.72 C270.6 3.26 270.6 3.26 271.6 4.26 C273.11 4.49 274.64 4.67 276.16 4.82 C276.99 4.91 277.81 4.99 278.66 5.08 C279.3 5.14 279.94 5.2 280.6 5.26 C280.6 5.92 280.6 6.58 280.6 7.26 C284.56 7.75 284.56 7.75 288.6 8.26 C288.6 8.92 288.6 9.58 288.6 10.26 C289.28 10.18 289.96 10.09 290.66 10.01 C294 10.29 296.02 11.5 298.83 13.24 C301.3 14.66 303.89 15.42 306.6 16.26 C307.95 16.9 309.29 17.55 310.6 18.26 C310.6 18.92 310.6 19.58 310.6 20.26 C311.92 20.26 313.24 20.26 314.6 20.26 C315.26 20.92 315.92 21.58 316.6 22.26 C317.46 22.75 318.33 23.25 319.22 23.76 C320.01 24.25 320.79 24.75 321.6 25.26 C321.6 25.92 321.6 26.58 321.6 27.26 C322.53 27.53 323.45 27.8 324.41 28.07 C327.45 29.2 328.54 29.91 330.6 32.26 C331.59 32.92 332.58 33.58 333.6 34.26 C334.51 34.95 334.51 34.95 335.45 35.65 C337.01 36.81 338.59 37.95 340.18 39.06 C345.84 43.02 350.35 46.81 354.6 52.26 C356.05 53.71 357.51 55.14 358.97 56.57 C365.6 63.35 365.6 63.35 365.6 67.26 C366.84 67.94 366.84 67.94 368.1 68.63 C369.34 69.44 369.34 69.44 370.6 70.26 C370.72 72.82 370.72 72.82 370.6 75.26 C371.59 75.92 372.58 76.58 373.6 77.26 C373.27 78.25 372.94 79.24 372.6 80.26 C373.59 80.59 374.58 80.92 375.6 81.26 C375.6 81.92 375.6 82.58 375.6 83.26 C376.24 83.9 376.88 84.54 377.54 85.2 C379.6 87.26 379.6 87.26 380.6 90.26 C381.26 91.25 381.92 92.24 382.6 93.26 C382.76 94.13 382.93 94.99 383.1 95.88 C383.26 96.67 383.43 97.45 383.6 98.26 C384.26 98.59 384.92 98.92 385.6 99.26 C385.6 100.91 385.6 102.56 385.6 104.26 C386.26 104.26 386.92 104.26 387.6 104.26 C388.26 105.58 388.92 106.9 389.6 108.26 C388.94 108.26 388.28 108.26 387.6 108.26 C388.26 109.58 388.92 110.9 389.6 112.26 C390.26 112.26 390.92 112.26 391.6 112.26 C391.27 114.9 390.94 117.54 390.6 120.26 C391.59 120.59 392.58 120.92 393.6 121.26 C393.6 121.59 393.6 121.92 393.6 122.26 C393.76 122.86 393.93 123.46 394.1 124.07 C394.6 126.26 394.6 126.26 394.6 130.26 C395.26 130.26 395.92 130.26 396.6 130.26 C396.72 137.88 396.72 137.88 395.6 141.26 C396.26 141.92 396.92 142.58 397.6 143.26 C398 145.25 398.34 147.25 398.6 149.26 C398.93 149.26 399.26 149.26 399.6 149.26 C399.64 151.59 399.64 153.93 399.6 156.26 C399.27 156.59 398.94 156.92 398.6 157.26 C398.37 158.94 398.19 160.63 398.04 162.32 C397.95 163.24 397.87 164.16 397.78 165.11 C397.72 165.82 397.66 166.53 397.6 167.26 C398.26 167.26 398.92 167.26 399.6 167.26 C399.6 171.88 399.6 176.5 399.6 181.26 C399.27 181.26 398.94 181.26 398.6 181.26 C398.55 181.86 398.5 182.47 398.45 183.09 C398.37 183.89 398.3 184.69 398.22 185.51 C398.15 186.3 398.08 187.09 398.01 187.9 C397.6 190.26 397.6 190.26 396.5 192.37 C395.26 194.4 395.26 194.4 396.6 197.26 C396.19 199.86 395.72 202.38 395.16 204.95 C395.01 205.65 394.87 206.35 394.71 207.07 C394.35 208.8 393.97 210.53 393.6 212.26 C392.61 212.59 391.62 212.92 390.6 213.26 C388.78 217.5 388.21 221.71 387.6 226.26 C387.27 226.92 386.94 227.58 386.6 228.26 C386.25 229.59 385.91 230.92 385.6 232.26 C384.61 232.26 383.62 232.26 382.6 232.26 C382.93 234.24 383.26 236.22 383.6 238.26 C382.28 238.59 380.96 238.92 379.6 239.26 C379.27 241.57 378.94 243.88 378.6 246.26 C377.61 246.59 376.62 246.92 375.6 247.26 C375.93 248.25 376.26 249.24 376.6 250.26 C375.61 250.26 374.62 250.26 373.6 250.26 C373.37 250.96 373.14 251.66 372.91 252.38 C371.28 255.95 369.19 258.32 366.6 261.26 C366.93 261.92 367.26 262.58 367.6 263.26 C366.61 263.26 365.62 263.26 364.6 263.26 C363.49 265.65 363.49 265.65 362.6 268.26 C362.93 268.92 363.26 269.58 363.6 270.26 C362.28 270.59 360.96 270.92 359.6 271.26 C359.54 272.02 359.47 272.79 359.41 273.57 C358.32 277.17 356.84 277.49 353.6 279.26 C352.73 280.13 351.87 280.99 350.97 281.88 C348.6 284.26 348.6 284.26 345.6 285.26 C344.9 286.57 344.23 287.91 343.6 289.26 C342.1 291.01 342.1 291.01 340.6 292.26 C339.94 292.26 339.28 292.26 338.6 292.26 C338.27 293.58 337.94 294.9 337.6 296.26 C336.98 296.34 336.36 296.42 335.72 296.51 C333.41 297.07 333.41 297.07 332.35 299.32 C332.1 299.96 331.85 300.6 331.6 301.26 C331.6 300.6 331.6 299.94 331.6 299.26 C330.61 299.26 329.62 299.26 328.6 299.26 C328.6 300.58 328.6 301.9 328.6 303.26 C327.9 303.34 327.2 303.42 326.47 303.51 C322.95 304.43 320.6 306.22 317.6 308.26 C316.27 308.6 314.93 308.94 313.6 309.26 C312.92 310.03 312.92 310.03 312.22 310.82 C310.6 312.26 310.6 312.26 307.41 312.45 C306.48 312.38 305.55 312.32 304.6 312.26 C304.6 313.25 304.6 314.24 304.6 315.26 C305.26 315.59 305.92 315.92 306.6 316.26 C306.02 316.38 305.44 316.51 304.85 316.63 C302.57 317.27 300.67 318.15 298.6 319.26 C298.6 318.6 298.6 317.94 298.6 317.26 C297.61 317.59 296.62 317.92 295.6 318.26 C295.6 319.25 295.6 320.24 295.6 321.26 C291.43 322.45 287.27 322.66 282.96 322.98 C280.64 323.01 280.64 323.01 279.6 324.26 C280.59 324.59 281.58 324.92 282.6 325.26 C280.97 325.43 279.35 325.59 277.72 325.76 C276.82 325.85 275.91 325.94 274.98 326.04 C272.6 326.26 272.6 326.26 270.6 326.26 C270.27 326.92 269.94 327.58 269.6 328.26 C269.27 327.27 268.94 326.28 268.6 325.26 C268.6 326.25 268.6 327.24 268.6 328.26 C268.6 328.59 268.6 328.92 268.6 329.26 C267.46 329.24 266.33 329.22 265.16 329.2 C261.78 328.84 261.78 328.84 260.6 330.26 C258.29 330.52 256.01 330.69 253.7 330.82 C252.92 330.86 252.14 330.9 251.35 330.95 C237.7 331.58 224.02 331.37 210.36 331.33 C206.45 331.32 202.54 331.31 198.62 331.31 C191.8 331.3 184.97 331.28 178.14 331.27 C176.37 331.26 176.37 331.26 174.6 331.26 C174.6 332.15 174.6 333.04 174.6 333.97 C174.6 344.73 174.6 355.49 174.6 366.26 C175.66 366.26 176.72 366.25 177.82 366.25 C203.65 366.16 229.48 366.09 255.31 366.05 C267.8 366.03 280.29 366 292.78 365.96 C303.67 365.92 314.55 365.89 325.44 365.88 C331.2 365.88 336.97 365.86 342.73 365.84 C348.16 365.81 353.58 365.8 359.01 365.81 C361 365.81 362.99 365.8 364.99 365.78 C367.7 365.76 370.42 365.77 373.14 365.78 C373.93 365.77 374.72 365.75 375.53 365.74 C379.26 365.78 381.4 366.14 384.59 368.14 C387.01 370.69 387.21 371.74 387.17 375.21 C387.17 376.19 387.16 377.17 387.16 378.18 C387.14 379.23 387.11 380.29 387.09 381.37 C387.08 382.45 387.07 383.53 387.06 384.65 C387.04 388.1 386.97 391.55 386.91 395.01 C386.89 397.35 386.86 399.69 386.84 402.04 C386.79 407.78 386.7 413.52 386.6 419.26 C385.28 419.59 383.96 419.92 382.6 420.26 C383.26 420.59 383.92 420.92 384.6 421.26 C334.93 421.28 285.26 421.3 235.6 421.31 C229.74 421.31 223.88 421.31 218.03 421.31 C216.86 421.31 215.69 421.31 214.49 421.31 C195.59 421.32 176.68 421.33 157.77 421.34 C138.39 421.35 119 421.35 99.61 421.35 C87.64 421.35 75.67 421.36 63.7 421.37 C55.5 421.37 47.3 421.37 39.11 421.37 C34.37 421.37 29.63 421.37 24.89 421.38 C20.56 421.38 16.23 421.38 11.91 421.38 C10.33 421.38 8.76 421.38 7.19 421.38 C5.06 421.39 2.94 421.39 0.81 421.38 C-0.37 421.38 -1.56 421.38 -2.78 421.38 C-5.4 421.26 -5.4 421.26 -6.4 420.26 C-6.5 418.05 -6.53 415.83 -6.53 413.61 C-6.53 412.91 -6.53 412.2 -6.54 411.47 C-6.54 409.08 -6.54 406.68 -6.54 404.28 C-6.54 402.56 -6.54 400.84 -6.54 399.11 C-6.55 394.35 -6.55 389.59 -6.55 384.83 C-6.55 379.71 -6.55 374.58 -6.56 369.46 C-6.57 359.41 -6.57 349.37 -6.57 339.32 C-6.57 331.15 -6.57 322.99 -6.57 314.83 C-6.58 291.71 -6.59 268.6 -6.59 245.48 C-6.59 244.24 -6.59 242.99 -6.59 241.7 C-6.59 240.46 -6.59 239.21 -6.59 237.92 C-6.59 217.67 -6.6 197.42 -6.61 177.16 C-6.62 156.4 -6.63 135.63 -6.63 114.86 C-6.63 103.19 -6.63 91.52 -6.64 79.85 C-6.65 69.92 -6.66 59.98 -6.65 50.05 C-6.65 44.97 -6.65 39.9 -6.65 34.83 C-6.66 30.19 -6.66 25.55 -6.65 20.91 C-6.65 19.23 -6.65 17.54 -6.66 15.86 C-6.66 13.58 -6.66 11.31 -6.65 9.03 C-6.65 7.76 -6.65 6.49 -6.65 5.19 C-6.24 0.4 -4.33 0.01 0 0 Z M42.6 3.26 C43.6 5.26 43.6 5.26 43.6 5.26 Z M42.6 7.26 C43.6 11.26 43.6 11.26 43.6 11.26 Z M42.6 14.26 C43.6 16.26 43.6 16.26 43.6 16.26 Z M42.6 21.26 C42.6 24.56 42.6 27.86 42.6 31.26 C42.93 31.26 43.26 31.26 43.6 31.26 C43.6 27.96 43.6 24.66 43.6 21.26 C43.27 21.26 42.94 21.26 42.6 21.26 Z M42.6 48.26 C43.6 50.26 43.6 50.26 43.6 50.26 Z M42.6 69.26 C43.6 71.26 43.6 71.26 43.6 71.26 Z M42.6 79.26 C43.6 81.26 43.6 81.26 43.6 81.26 Z M42.6 83.26 C42.6 86.56 42.6 89.86 42.6 93.26 C42.93 93.26 43.26 93.26 43.6 93.26 C43.6 89.96 43.6 86.66 43.6 83.26 C43.27 83.26 42.94 83.26 42.6 83.26 Z M377.6 88.26 C378.6 90.26 378.6 90.26 378.6 90.26 Z M42.6 101.26 C42.6 104.23 42.6 107.2 42.6 110.26 C42.93 110.26 43.26 110.26 43.6 110.26 C43.6 107.29 43.6 104.32 43.6 101.26 C43.27 101.26 42.94 101.26 42.6 101.26 Z M222.6 102.26 C222.6 102.59 222.6 102.92 222.6 103.26 C226.56 103.26 230.52 103.26 234.6 103.26 C234.6 102.93 234.6 102.6 234.6 102.26 C230.64 102.26 226.68 102.26 222.6 102.26 Z M173.6 104.26 C174.6 106.26 174.6 106.26 174.6 106.26 Z M176.6 104.26 C176.6 104.59 176.6 104.92 176.6 105.26 C196.07 105.26 215.54 105.26 235.6 105.26 C235.6 104.93 235.6 104.6 235.6 104.26 C216.13 104.26 196.66 104.26 176.6 104.26 Z M236.6 105.26 C234.66 105.34 232.72 105.37 230.79 105.36 C229.57 105.35 228.35 105.35 227.1 105.35 C226.44 105.34 225.79 105.34 225.12 105.33 C223.08 105.32 221.04 105.31 219.01 105.31 C214.68 105.3 210.36 105.28 206.04 105.26 C201.02 105.24 196.01 105.21 191 105.2 C188.99 105.2 186.97 105.18 184.96 105.17 C183.75 105.17 182.53 105.16 181.28 105.16 C180.2 105.16 179.13 105.15 178.02 105.15 C175.65 104.98 175.65 104.98 174.6 106.26 C174.5 107.8 174.48 109.35 174.48 110.9 C174.48 111.9 174.47 112.9 174.47 113.94 C174.48 115.04 174.48 116.15 174.48 117.3 C174.48 118.46 174.48 119.62 174.48 120.81 C174.48 124.67 174.49 128.53 174.5 132.39 C174.5 135.05 174.5 137.72 174.5 140.39 C174.51 146.7 174.52 153.02 174.53 159.33 C174.54 167.22 174.54 175.11 174.55 183.01 C174.56 197.09 174.58 211.17 174.6 225.26 C193.74 225.26 212.88 225.26 232.6 225.26 C232.6 224.93 232.6 224.6 232.6 224.26 C233.88 224.08 233.88 224.08 235.2 223.89 C241.14 223.02 246.88 222.12 252.6 220.26 C252.6 219.6 252.6 218.94 252.6 218.26 C253.32 218.16 254.04 218.05 254.79 217.95 C257.93 217.18 260.04 216.23 262.6 214.26 C262.6 212.94 262.6 211.62 262.6 210.26 C263.35 210.34 264.1 210.42 264.87 210.5 C267.68 210.52 267.68 210.52 269.51 208.58 C270.36 207.49 270.36 207.49 271.22 206.38 C273.32 203.73 274.74 202.16 277.6 200.26 C277.85 197.67 277.85 197.67 277.6 195.26 C278.18 195.07 278.75 194.89 279.35 194.7 C282.64 192.59 284.3 189.86 285.6 186.26 C285.91 183.22 285.85 180.3 285.6 177.26 C286.26 177.26 286.92 177.26 287.6 177.26 C289.21 168.21 288.79 159.33 287.6 150.26 C287.27 150.26 286.94 150.26 286.6 150.26 C285.61 145.8 285.61 145.8 284.6 141.26 C283.94 141.26 283.28 141.26 282.6 141.26 C282.49 140.56 282.39 139.86 282.29 139.13 C281.02 133.84 278.79 129.77 274.6 126.26 C273.94 126.26 273.28 126.26 272.6 126.26 C272.6 125.6 272.6 124.94 272.6 124.26 C271.94 124.26 271.28 124.26 270.6 124.26 C270.1 122.77 270.1 122.77 269.6 121.26 C268.94 121.26 268.28 121.26 267.6 121.26 C267.6 120.6 267.6 119.94 267.6 119.26 C264.96 116.86 264.96 116.86 261.6 116.26 C261.1 114.77 261.1 114.77 260.6 113.26 C259.94 113.59 259.28 113.92 258.6 114.26 C258.1 112.28 258.1 112.28 257.6 110.26 C255.62 110.59 253.64 110.92 251.6 111.26 C251.93 109.94 252.26 108.62 252.6 107.26 C251.81 107.3 251.03 107.34 250.22 107.38 C247.6 107.26 247.6 107.26 245.6 105.26 C240.99 104.15 240.99 104.15 236.6 105.26 Z M172.6 106.26 C172.6 144.87 172.6 183.48 172.6 223.26 C172.93 223.26 173.26 223.26 173.6 223.26 C173.6 184.65 173.6 146.04 173.6 106.26 C173.27 106.26 172.94 106.26 172.6 106.26 Z M42.6 115.26 C42.6 116.91 42.6 118.56 42.6 120.26 C42.93 120.26 43.26 120.26 43.6 120.26 C43.6 118.61 43.6 116.96 43.6 115.26 C43.27 115.26 42.94 115.26 42.6 115.26 Z M392.6 130.26 C393.6 133.26 393.6 133.26 393.6 133.26 Z M42.6 131.26 C43.6 133.26 43.6 133.26 43.6 133.26 Z M42.6 147.26 C43.6 151.26 43.6 151.26 43.6 151.26 Z M42.6 168.26 C43.6 172.26 43.6 172.26 43.6 172.26 Z M397.6 168.26 C397.27 168.92 396.94 169.58 396.6 170.26 C397.26 170.26 397.92 170.26 398.6 170.26 C398.27 169.6 397.94 168.94 397.6 168.26 Z M42.6 178.26 C43.6 180.26 43.6 180.26 43.6 180.26 Z M286.6 178.26 C287.6 180.26 287.6 180.26 287.6 180.26 Z M42.6 182.26 C42.6 184.24 42.6 186.22 42.6 188.26 C42.93 188.26 43.26 188.26 43.6 188.26 C43.6 186.28 43.6 184.3 43.6 182.26 C43.27 182.26 42.94 182.26 42.6 182.26 Z M393.6 196.26 C393.6 198.24 393.6 200.22 393.6 202.26 C393.93 202.26 394.26 202.26 394.6 202.26 C394.6 200.28 394.6 198.3 394.6 196.26 C394.27 196.26 393.94 196.26 393.6 196.26 Z M392.6 202.26 C392.6 204.24 392.6 206.22 392.6 208.26 C392.93 208.26 393.26 208.26 393.6 208.26 C393.6 206.28 393.6 204.3 393.6 202.26 C393.27 202.26 392.94 202.26 392.6 202.26 Z M42.6 210.26 C43.6 213.26 43.6 213.26 43.6 213.26 Z M387.6 213.26 C388.6 216.26 388.6 216.26 388.6 216.26 Z M42.6 227.26 C43.6 230.26 43.6 230.26 43.6 230.26 Z M383.6 228.26 C384.6 231.26 384.6 231.26 384.6 231.26 Z M42.6 249.26 C43.6 251.26 43.6 251.26 43.6 251.26 Z M42.6 268.26 C43.6 270.26 43.6 270.26 43.6 270.26 Z M42.6 276.26 C43.6 279.26 43.6 279.26 43.6 279.26 Z M42.6 289.26 C43.6 292.26 43.6 292.26 43.6 292.26 Z M334.6 293.26 C335.6 295.26 335.6 295.26 335.6 295.26 Z M243.6 327.26 C243.6 327.59 243.6 327.92 243.6 328.26 C245.58 328.26 247.56 328.26 249.6 328.26 C249.6 327.93 249.6 327.6 249.6 327.26 C247.62 327.26 245.64 327.26 243.6 327.26 Z M177.6 328.26 C177.6 328.59 177.6 328.92 177.6 329.26 C181.23 329.26 184.86 329.26 188.6 329.26 C188.6 328.93 188.6 328.6 188.6 328.26 C184.97 328.26 181.34 328.26 177.6 328.26 Z M211.6 328.26 C211.6 328.59 211.6 328.92 211.6 329.26 C213.25 329.26 214.9 329.26 216.6 329.26 C216.6 328.93 216.6 328.6 216.6 328.26 C214.95 328.26 213.3 328.26 211.6 328.26 Z M219.6 328.26 C219.6 328.59 219.6 328.92 219.6 329.26 C223.89 329.26 228.18 329.26 232.6 329.26 C232.6 328.93 232.6 328.6 232.6 328.26 C228.31 328.26 224.02 328.26 219.6 328.26 Z M237.6 328.26 C237.6 328.59 237.6 328.92 237.6 329.26 C239.58 329.26 241.56 329.26 243.6 329.26 C243.6 328.93 243.6 328.6 243.6 328.26 C241.62 328.26 239.64 328.26 237.6 328.26 Z M250.6 328.26 C250.6 328.59 250.6 328.92 250.6 329.26 C253.57 329.26 256.54 329.26 259.6 329.26 C259.6 328.93 259.6 328.6 259.6 328.26 C256.63 328.26 253.66 328.26 250.6 328.26 Z M243.6 329.26 C243.6 329.59 243.6 329.92 243.6 330.26 C245.58 330.26 247.56 330.26 249.6 330.26 C249.6 329.93 249.6 329.6 249.6 329.26 C247.62 329.26 245.64 329.26 243.6 329.26 Z M42.6 330.26 C43.6 332.26 43.6 332.26 43.6 332.26 Z M42.6 348.26 C43.6 350.26 43.6 350.26 43.6 350.26 Z M42.6 352.26 C42.6 356.55 42.6 360.84 42.6 365.26 C42.93 365.26 43.26 365.26 43.6 365.26 C43.6 360.97 43.6 356.68 43.6 352.26 C43.27 352.26 42.94 352.26 42.6 352.26 Z M45.6 367.26 C45.6 367.59 45.6 367.92 45.6 368.26 C54.18 368.26 62.76 368.26 71.6 368.26 C71.6 367.93 71.6 367.6 71.6 367.26 C63.02 367.26 54.44 367.26 45.6 367.26 Z M175.6 367.26 C175.6 367.59 175.6 367.92 175.6 368.26 C237.97 368.26 300.34 368.26 364.6 368.26 C364.6 367.93 364.6 367.6 364.6 367.26 C302.23 367.26 239.86 367.26 175.6 367.26 Z M-5.4 417.26 C-5.4 418.25 -5.4 419.24 -5.4 420.26 C122.31 420.26 250.02 420.26 381.6 420.26 C381.27 419.27 380.94 418.28 380.6 417.26 C379.94 417.59 379.28 417.92 378.6 418.26 C376.53 418.35 374.46 418.38 372.39 418.38 C371.42 418.39 371.42 418.39 370.43 418.39 C368.24 418.39 366.06 418.39 363.87 418.39 C362.29 418.39 360.72 418.39 359.14 418.39 C354.79 418.39 350.45 418.39 346.1 418.39 C341.42 418.39 336.74 418.39 332.05 418.39 C322.88 418.4 313.7 418.4 304.52 418.39 C297.06 418.39 289.61 418.39 282.15 418.39 C281.09 418.39 280.03 418.39 278.94 418.39 C276.79 418.39 274.64 418.39 272.49 418.39 C252.29 418.4 232.09 418.39 211.89 418.39 C194.54 418.38 177.2 418.38 159.85 418.39 C139.72 418.39 119.6 418.4 99.48 418.39 C97.33 418.39 95.19 418.39 93.04 418.39 C91.46 418.39 91.46 418.39 89.85 418.39 C82.4 418.39 74.94 418.39 67.49 418.4 C58.42 418.4 49.34 418.4 40.27 418.39 C35.63 418.39 31 418.39 26.37 418.39 C22.13 418.39 17.89 418.39 13.66 418.39 C12.12 418.39 10.58 418.39 9.04 418.39 C6.96 418.39 4.88 418.39 2.8 418.38 C1.65 418.38 0.49 418.38 -0.71 418.38 C-3.4 418.26 -3.4 418.26 -5.4 417.26 Z " fill="#101819" transform="translate(561.402099609375,357.7412109375)"/>
<path d="M0 0 C12.84 -0.07 25.68 -0.12 38.52 -0.16 C44.48 -0.17 50.44 -0.19 56.4 -0.23 C62.15 -0.26 67.9 -0.28 73.65 -0.28 C75.85 -0.29 78.05 -0.3 80.24 -0.32 C83.31 -0.34 86.39 -0.34 89.46 -0.34 C90.83 -0.36 90.83 -0.36 92.22 -0.37 C98.41 -0.34 98.41 -0.34 101.6 1.52 C102.06 2.01 102.52 2.5 103 3 C102.67 3.33 102.34 3.66 102 4 C101.88 5.5 101.82 7.01 101.79 8.52 C101.77 9.48 101.75 10.44 101.73 11.43 C101.72 12.48 101.7 13.52 101.68 14.6 C101.65 16.19 101.65 16.19 101.62 17.82 C101.56 21.24 101.5 24.65 101.44 28.06 C101.39 30.37 101.35 32.68 101.31 34.99 C101.2 40.66 101.1 46.33 101 52 C101.66 52 102.32 52 103 52 C103.03 55.31 103.05 58.62 103.06 61.94 C103.07 62.88 103.08 63.83 103.09 64.8 C103.09 65.7 103.09 66.6 103.1 67.53 C103.1 68.36 103.11 69.19 103.11 70.05 C103 72 103 72 102 73 C102.33 73 102.66 73 103 73 C103 159.98 103 246.95 103 382 C103.01 383.59 103.01 385.19 103.02 386.78 C103.03 392.46 103.05 398.13 103.05 403.81 C103.06 406.27 103.07 408.73 103.08 411.19 C103.09 414.72 103.09 418.25 103.1 421.78 C103.1 422.89 103.11 424 103.11 425.14 C103.11 426.15 103.11 427.17 103.11 428.22 C103.12 429.12 103.12 430.02 103.12 430.95 C103 433 103 433 102 434 C102.33 434 102.66 434 103 434 C103 445.22 103 456.44 103 468 C160.42 468 217.84 468 277 468 C278.15 470.29 278.13 471.56 278.13 474.11 C278.13 474.97 278.13 475.83 278.14 476.71 C278.13 478.13 278.13 478.13 278.13 479.57 C278.13 481.06 278.13 481.06 278.13 482.59 C278.14 485.88 278.14 489.18 278.13 492.47 C278.13 494.75 278.13 497.04 278.14 499.32 C278.14 504.1 278.14 508.89 278.13 513.68 C278.12 519.82 278.13 525.97 278.13 532.12 C278.14 536.84 278.14 541.55 278.13 546.26 C278.13 548.53 278.13 550.8 278.14 553.07 C278.14 556.23 278.13 559.39 278.13 562.55 C278.13 563.5 278.13 564.45 278.14 565.42 C278.11 571.89 278.11 571.89 277 573 C275.53 573.1 274.05 573.13 272.57 573.13 C271.13 573.13 271.13 573.13 269.66 573.14 C268.59 573.14 267.52 573.14 266.42 573.13 C265.29 573.14 264.16 573.14 263 573.14 C259.2 573.15 255.39 573.15 251.58 573.15 C248.87 573.15 246.15 573.15 243.43 573.16 C236.8 573.16 230.17 573.17 223.54 573.17 C218.15 573.17 212.77 573.17 207.38 573.17 C192.12 573.18 176.87 573.19 161.61 573.19 C160.79 573.19 159.96 573.19 159.11 573.19 C158.29 573.19 157.47 573.19 156.62 573.19 C143.25 573.18 129.89 573.19 116.52 573.21 C102.81 573.22 89.11 573.23 75.4 573.23 C67.7 573.23 60 573.23 52.29 573.24 C45.74 573.25 39.18 573.25 32.62 573.25 C29.28 573.24 25.93 573.24 22.58 573.25 C18.96 573.26 15.33 573.25 11.71 573.25 C10.64 573.25 9.58 573.26 8.48 573.26 C7.51 573.26 6.55 573.25 5.55 573.25 C4.3 573.25 4.3 573.25 3.02 573.25 C1 573 1 573 -1 571 C-1.2 567.93 -1.27 564.96 -1.25 561.89 C-1.25 560.93 -1.25 559.97 -1.26 558.98 C-1.26 555.73 -1.26 552.47 -1.25 549.22 C-1.25 546.87 -1.25 544.53 -1.25 542.19 C-1.26 536.4 -1.26 530.62 -1.25 524.83 C-1.24 517.9 -1.24 510.98 -1.25 504.05 C-1.25 491.26 -1.25 478.48 -1.24 465.69 C-1.23 453.02 -1.23 440.35 -1.23 427.69 C-1.23 426.9 -1.23 426.11 -1.23 425.3 C-1.23 422.11 -1.23 418.92 -1.23 415.72 C-1.23 385.74 -1.22 355.75 -1.2 325.77 C-1.19 299.11 -1.18 272.45 -1.19 245.79 C-1.19 244.08 -1.19 242.37 -1.19 240.66 C-1.19 239.81 -1.19 238.97 -1.19 238.09 C-1.19 233.83 -1.19 229.58 -1.19 225.32 C-1.19 224.48 -1.19 223.64 -1.19 222.77 C-1.19 200.52 -1.18 178.26 -1.18 156.01 C-1.18 155.22 -1.17 154.43 -1.17 153.61 C-1.17 150.43 -1.17 147.25 -1.17 144.07 C-1.17 132.98 -1.17 121.9 -1.17 110.81 C-1.17 96.53 -1.16 82.24 -1.15 67.96 C-1.15 61.06 -1.14 54.17 -1.15 47.28 C-1.15 40.98 -1.14 34.68 -1.14 28.38 C-1.13 26.09 -1.13 23.8 -1.14 21.51 C-1.14 18.42 -1.13 15.33 -1.13 12.23 C-1.13 11.33 -1.13 10.43 -1.13 9.5 C-1.13 8.68 -1.13 7.86 -1.13 7.01 C-1.13 6.3 -1.13 5.6 -1.13 4.87 C-1 3 -1 3 0 0 Z M101 53 C100.67 53.66 100.34 54.32 100 55 C100.66 55 101.32 55 102 55 C101.67 54.34 101.34 53.68 101 53 Z M101 383 C100.67 383.66 100.34 384.32 100 385 C100.66 385 101.32 385 102 385 C101.67 384.34 101.34 383.68 101 383 Z M276 471 C277 475 277 475 277 475 Z M276 488 C276 489.65 276 491.3 276 493 C276.33 493 276.66 493 277 493 C277 491.35 277 489.7 277 488 C276.67 488 276.34 488 276 488 Z M276 520 C277 523 277 523 277 523 Z M276 557 C276 561.62 276 566.24 276 571 C276.33 571 276.66 571 277 571 C277 566.38 277 561.76 277 557 C276.67 557 276.34 557 276 557 Z M56 571 C56 571.33 56 571.66 56 572 C57.98 572 59.96 572 62 572 C62 571.67 62 571.34 62 571 C60.02 571 58.04 571 56 571 Z M77 571 C77 571.33 77 571.66 77 572 C78.65 572 80.3 572 82 572 C82 571.67 82 571.34 82 571 C80.35 571 78.7 571 77 571 Z M147 571 C151 572 151 572 151 572 Z M269 571 C269 571.33 269 571.66 269 572 C271.31 572 273.62 572 276 572 C276 571.67 276 571.34 276 571 C273.69 571 271.38 571 269 571 Z " fill="#11191A" transform="translate(328,358)"/>
<path d="M0 0 C0.91 -0.01 1.83 -0.02 2.77 -0.03 C3.76 -0.03 4.75 -0.03 5.77 -0.03 C6.78 -0.03 7.8 -0.03 8.84 -0.04 C10.99 -0.04 13.13 -0.05 15.28 -0.04 C18.57 -0.04 21.86 -0.06 25.15 -0.09 C27.23 -0.09 29.31 -0.09 31.39 -0.09 C32.38 -0.1 33.37 -0.11 34.39 -0.12 C35.31 -0.11 36.22 -0.1 37.16 -0.1 C38.37 -0.1 38.37 -0.1 39.61 -0.1 C40.26 0.02 40.91 0.15 41.58 0.27 C44.04 3.96 43.83 5.73 43.83 10.13 C43.83 10.83 43.83 11.53 43.84 12.26 C43.84 14.64 43.83 17.01 43.82 19.39 C43.82 21.1 43.83 22.82 43.83 24.53 C43.83 29.26 43.82 33.98 43.81 38.71 C43.81 43.8 43.81 48.89 43.81 53.98 C43.81 62.8 43.8 71.62 43.79 80.45 C43.78 93.21 43.77 105.96 43.77 118.72 C43.77 139.42 43.75 160.11 43.73 180.81 C43.71 200.92 43.7 221.02 43.69 241.13 C43.69 242.99 43.69 242.99 43.69 244.89 C43.69 251.1 43.69 257.32 43.68 263.53 C43.66 315.11 43.63 366.69 43.58 418.27 C43.25 418.27 42.92 418.27 42.58 418.27 C42.25 284.29 41.92 150.31 41.58 12.27 C41.58 41.64 41.58 71.01 41.58 101.27 C41.58 207.94 41.58 314.61 41.58 421.27 C26.4 421.27 11.22 421.27 -4.42 421.27 C-4.75 420.61 -5.08 419.95 -5.42 419.27 C-5.75 419.27 -6.08 419.27 -6.42 419.27 C-6.46 366.19 -6.5 313.1 -6.52 260.01 C-6.52 253.75 -6.53 247.48 -6.53 241.22 C-6.53 239.98 -6.53 238.73 -6.53 237.45 C-6.54 217.24 -6.55 197.03 -6.57 176.82 C-6.59 156.09 -6.6 135.37 -6.61 114.65 C-6.61 101.85 -6.62 89.06 -6.63 76.26 C-6.64 67.5 -6.65 58.73 -6.64 49.97 C-6.64 44.91 -6.65 39.84 -6.66 34.78 C-6.67 30.15 -6.67 25.52 -6.66 20.89 C-6.66 19.21 -6.66 17.53 -6.67 15.85 C-6.68 13.58 -6.67 11.31 -6.66 9.03 C-6.66 7.77 -6.67 6.5 -6.67 5.2 C-6.26 0.41 -4.33 0.02 0 0 Z M36.58 417.27 C36.58 417.93 36.58 418.59 36.58 419.27 C24.04 418.94 11.5 418.61 -1.42 418.27 C-1.75 418.93 -2.08 419.59 -2.42 420.27 C11.11 420.27 24.64 420.27 38.58 420.27 C37.92 419.28 37.26 418.29 36.58 417.27 Z " fill="#141C1D" transform="translate(451.41796875,357.725341796875)"/>
<path d="M0 0 C1.49 0.01 2.98 0.02 4.46 0.04 C5.22 0.04 5.98 0.04 6.76 0.05 C8.64 0.06 10.52 0.08 12.4 0.1 C12.4 0.43 12.4 0.76 12.4 1.1 C38.8 1.43 65.2 1.76 92.4 2.1 C92.4 37.08 92.4 72.06 92.4 108.1 C68.95 107.91 68.95 107.91 45.03 107.72 C40.09 107.69 35.14 107.65 30.05 107.62 C24.03 107.57 24.03 107.57 21.22 107.54 C19.24 107.52 17.27 107.51 15.3 107.49 C12.32 107.48 9.33 107.45 6.35 107.42 C5.47 107.41 4.58 107.41 3.67 107.41 C-2.37 107.33 -2.37 107.33 -4.6 105.1 C-4.85 103.23 -4.85 103.23 -4.84 100.92 C-4.85 100.04 -4.85 99.16 -4.86 98.26 C-4.85 97.3 -4.85 96.33 -4.84 95.34 C-4.84 93.82 -4.84 93.82 -4.85 92.27 C-4.85 88.91 -4.84 85.55 -4.83 82.19 C-4.83 79.86 -4.83 77.53 -4.83 75.21 C-4.83 70.33 -4.82 65.45 -4.8 60.57 C-4.79 54.3 -4.78 48.03 -4.78 41.76 C-4.78 36.95 -4.78 32.15 -4.77 27.34 C-4.77 25.03 -4.77 22.72 -4.76 20.4 C-4.76 17.18 -4.75 13.95 -4.74 10.73 C-4.74 9.76 -4.74 8.79 -4.74 7.8 C-4.74 6.93 -4.74 6.05 -4.73 5.15 C-4.73 4.39 -4.73 3.63 -4.73 2.84 C-4.48 -0.5 -3.45 0.09 0 0 Z " fill="#0F1718" transform="translate(641.59765625,823.90234375)"/>
<path d="M0 0 C2 2 2 2 2.25 4.89 C2.25 6.14 2.25 7.39 2.25 8.68 C2.25 9.38 2.25 10.08 2.25 10.8 C2.26 13.16 2.25 15.52 2.24 17.88 C2.24 19.58 2.24 21.28 2.25 22.99 C2.25 27.68 2.24 32.37 2.23 37.06 C2.22 42.12 2.23 47.17 2.23 52.23 C2.23 60.99 2.22 69.75 2.21 78.51 C2.2 91.18 2.19 103.85 2.19 116.52 C2.18 137.07 2.17 157.62 2.15 178.18 C2.13 198.15 2.12 218.12 2.11 238.08 C2.11 239.31 2.11 240.54 2.11 241.81 C2.11 247.98 2.1 254.15 2.1 260.32 C2.08 311.55 2.04 362.77 2 414 C1.01 414.33 0.02 414.66 -1 415 C-1.02 363.29 -1.04 311.57 -1.05 259.86 C-1.05 253.76 -1.05 247.65 -1.05 241.55 C-1.06 240.34 -1.06 239.12 -1.06 237.87 C-1.06 218.19 -1.07 198.5 -1.08 178.82 C-1.09 158.63 -1.09 138.44 -1.09 118.25 C-1.1 105.79 -1.1 93.33 -1.11 80.86 C-1.11 72.32 -1.11 63.78 -1.11 55.24 C-1.11 50.31 -1.11 45.38 -1.12 40.45 C-1.12 35.93 -1.12 31.42 -1.12 26.9 C-1.12 25.27 -1.12 23.64 -1.12 22 C-1.13 19.78 -1.13 17.56 -1.12 15.34 C-1.12 14.11 -1.12 12.87 -1.12 11.6 C-0.99 7.67 -0.54 3.9 0 0 Z " fill="#545B5F" transform="translate(556,363)"/>
<path d="M0 0 C24.16 -0.09 48.33 -0.16 72.5 -0.21 C83.72 -0.23 94.94 -0.26 106.16 -0.3 C115.93 -0.34 125.71 -0.37 135.49 -0.38 C140.67 -0.38 145.85 -0.39 151.02 -0.42 C155.9 -0.45 160.77 -0.46 165.64 -0.45 C167.43 -0.45 169.22 -0.46 171.01 -0.48 C173.45 -0.5 175.9 -0.49 178.34 -0.48 C179.4 -0.5 179.4 -0.5 180.49 -0.52 C184.03 -0.47 185.92 -0.05 188.94 1.88 C191.42 4.43 191.61 5.45 191.57 8.95 C191.57 9.93 191.57 10.91 191.57 11.92 C191.54 12.98 191.51 14.03 191.49 15.11 C191.48 16.73 191.48 16.73 191.47 18.39 C191.44 21.84 191.38 25.3 191.31 28.75 C191.29 31.09 191.26 33.43 191.24 35.78 C191.19 41.52 191.11 47.26 191 53 C190.01 53 189.02 53 188 53 C187.67 37.49 187.34 21.98 187 6 C118.69 6 50.38 6 -20 6 C-20 5.01 -20 4.02 -20 3 C-13.4 2.34 -6.8 1.68 0 1 C0 0.67 0 0.34 0 0 Z " fill="#333637" transform="translate(757,724)"/>
<path d="M0 0 C0.33 0 0.66 0 1 0 C2.36 65.48 2.15 130.98 2.13 196.47 C2.12 208.39 2.13 220.32 2.13 232.25 C2.14 246.34 2.14 260.43 2.13 274.52 C2.13 276.04 2.13 277.55 2.13 279.07 C2.13 279.81 2.13 280.56 2.13 281.33 C2.13 286.43 2.13 291.53 2.14 296.64 C2.15 333.1 1.83 369.54 1 406 C4.3 406 7.6 406 11 406 C11 406.33 11 406.66 11 407 C8.03 407.33 5.06 407.66 2 408 C16.19 408.33 30.38 408.66 45 409 C45 409.33 45 409.66 45 410 C29.82 410 14.64 410 -1 410 C-1.02 368.17 -1.04 326.33 -1.05 284.5 C-1.05 279.51 -1.05 274.53 -1.05 269.55 C-1.06 268.55 -1.06 267.56 -1.06 266.54 C-1.06 250.66 -1.07 234.78 -1.08 218.9 C-1.09 202.51 -1.09 186.11 -1.09 169.71 C-1.1 160.54 -1.1 151.38 -1.11 142.21 C-1.14 94.8 -0.81 47.41 0 0 Z " fill="#010304" transform="translate(448,369)"/>
<path d="M0 0 C1.26 0.01 2.52 0.01 3.81 0.02 C5.21 0.03 6.6 0.05 8 0.06 C9.47 0.07 10.94 0.08 12.41 0.09 C16.4 0.12 20.38 0.15 24.37 0.18 C28.54 0.22 32.71 0.25 36.88 0.27 C44.77 0.33 52.67 0.39 60.56 0.46 C69.55 0.53 78.53 0.59 87.52 0.66 C106.01 0.79 124.5 0.94 142.98 1.08 C142.98 1.41 142.98 1.74 142.98 2.08 C142.29 2.09 141.59 2.09 140.87 2.1 C123.88 2.2 106.9 2.31 89.91 2.42 C81.7 2.48 73.48 2.53 65.27 2.58 C58.11 2.62 50.94 2.67 43.78 2.72 C39.99 2.75 36.2 2.77 32.41 2.79 C28.84 2.81 25.26 2.84 21.69 2.86 C19.77 2.88 17.84 2.89 15.92 2.89 C9.22 2.95 2.64 3.26 -4.02 4.08 C-4.04 5.98 -4.06 7.87 -4.08 9.77 C-4.09 10.83 -4.1 11.88 -4.12 12.97 C-4.11 15.98 -4.11 15.98 -3.51 18.48 C-3.02 21.05 -2.93 23.28 -3 25.89 C-3.02 26.85 -3.04 27.81 -3.06 28.8 C-3.08 29.87 -3.11 30.93 -3.14 32.03 C-3.19 34.46 -3.24 36.9 -3.29 39.34 C-3.31 40.69 -3.34 42.04 -3.37 43.39 C-4.1 79.06 -4.11 114.73 -4.08 150.4 C-4.08 153.22 -4.08 156.03 -4.08 158.85 C-4.07 179.14 -4.04 199.44 -4.02 219.73 C-4.01 226.47 -4 233.2 -4 239.94 C-4 241.05 -4 241.05 -3.99 242.18 C-3.98 254.57 -3.97 266.95 -3.96 279.34 C-3.96 286.9 -3.95 294.46 -3.94 302.02 C-3.93 307.78 -3.93 313.54 -3.92 319.3 C-3.92 321.65 -3.92 323.99 -3.91 326.34 C-3.88 338.3 -3.96 350.16 -5.02 362.08 C-5.35 362.08 -5.68 362.08 -6.02 362.08 C-6.8 319.16 -7.16 276.25 -7.12 233.31 C-7.11 225.44 -7.11 217.57 -7.11 209.7 C-7.11 195.67 -7.1 181.65 -7.09 167.63 C-7.08 154.06 -7.08 140.5 -7.07 126.93 C-7.07 126.09 -7.07 125.24 -7.07 124.37 C-7.07 120.12 -7.07 115.87 -7.07 111.63 C-7.06 76.78 -7.04 41.93 -7.02 7.08 C-7.35 13.02 -7.68 18.96 -8.02 25.08 C-8.35 25.08 -8.68 25.08 -9.02 25.08 C-9.02 17.16 -9.02 9.24 -9.02 1.08 C-5.76 -0 -3.43 -0.03 0 0 Z " fill="#010203" transform="translate(646.0173797607422,359.91770935058594)"/>
<path d="M0 0 C2.32 3.49 2.25 4.82 2.25 8.94 C2.26 10.19 2.26 11.44 2.27 12.72 C2.26 14.11 2.26 15.51 2.25 16.9 C2.26 18.37 2.26 19.85 2.26 21.32 C2.27 25.38 2.27 29.44 2.26 33.5 C2.26 37.87 2.26 42.25 2.27 46.62 C2.28 55.2 2.28 63.77 2.27 72.34 C2.27 79.31 2.27 86.27 2.27 93.24 C2.27 94.23 2.27 95.22 2.27 96.24 C2.27 98.25 2.27 100.26 2.27 102.27 C2.28 121.14 2.27 140 2.26 158.87 C2.25 175.08 2.25 191.28 2.26 207.49 C2.27 226.29 2.28 245.09 2.27 263.89 C2.27 265.89 2.27 267.9 2.27 269.9 C2.27 270.88 2.27 271.87 2.27 272.88 C2.26 279.84 2.27 286.81 2.27 293.77 C2.28 302.24 2.28 310.72 2.27 319.19 C2.26 323.52 2.26 327.85 2.27 332.18 C2.27 336.14 2.27 340.09 2.26 344.05 C2.26 345.49 2.26 346.92 2.26 348.36 C2.27 350.3 2.26 352.24 2.25 354.19 C2.25 355.27 2.25 356.35 2.25 357.47 C2 360 2 360 0 362 C-0.75 357.98 -1.13 354.18 -1.13 350.09 C-1.13 348.92 -1.13 347.76 -1.13 346.56 C-1.13 345.28 -1.13 344.01 -1.13 342.7 C-1.13 341.33 -1.13 339.96 -1.13 338.59 C-1.14 334.82 -1.13 331.05 -1.13 327.29 C-1.13 323.23 -1.13 319.16 -1.13 315.1 C-1.14 307.14 -1.14 299.17 -1.14 291.21 C-1.13 284.73 -1.13 278.25 -1.13 271.77 C-1.13 270.84 -1.13 269.92 -1.13 268.97 C-1.13 267.1 -1.13 265.22 -1.14 263.35 C-1.14 245.75 -1.13 228.16 -1.13 210.56 C-1.12 195.5 -1.13 180.44 -1.13 165.38 C-1.14 147.87 -1.14 130.37 -1.13 112.86 C-1.13 110.99 -1.13 109.11 -1.13 107.24 C-1.13 106.32 -1.13 105.4 -1.13 104.45 C-1.13 97.99 -1.13 91.53 -1.14 85.08 C-1.14 77.18 -1.14 69.29 -1.13 61.4 C-1.13 57.38 -1.13 53.36 -1.13 49.34 C-1.15 32.87 -1.03 16.45 0 0 Z " fill="#7F8688" transform="translate(638,364)"/>
<path d="M0 0 C1.65 0 3.3 0 5 0 C4.67 0.66 4.34 1.32 4 2 C3.88 3.54 3.82 5.09 3.79 6.63 C3.77 7.59 3.75 8.55 3.73 9.54 C3.72 10.58 3.7 11.62 3.68 12.7 C3.66 13.76 3.64 14.82 3.62 15.92 C3.56 19.32 3.5 22.72 3.44 26.12 C3.39 28.43 3.35 30.73 3.31 33.04 C3.2 38.69 3.1 44.34 3 50 C3.66 50 4.32 50 5 50 C5.03 53.31 5.05 56.62 5.06 59.94 C5.07 60.88 5.08 61.83 5.09 62.8 C5.09 63.7 5.09 64.6 5.1 65.53 C5.1 66.36 5.11 67.19 5.11 68.05 C5 70 5 70 4 71 C4.33 71 4.66 71 5 71 C5 172.64 5 274.28 5 379 C4.67 379 4.34 379 4 379 C3.67 319.6 3.34 260.2 3 199 C2.67 199 2.34 199 2 199 C1.66 195.83 1.33 192.67 1 189.5 C0.9 188.61 0.81 187.73 0.71 186.81 C-0.66 173.46 -0.66 173.46 0.5 169.15 C1.14 166.39 1.13 163.82 1.13 160.99 C1.13 159.84 1.14 158.69 1.14 157.5 C1.13 156.31 1.13 155.11 1.12 153.88 C1.13 152.67 1.13 151.46 1.14 150.22 C1.14 149.07 1.13 147.93 1.13 146.74 C1.13 145.69 1.13 144.64 1.13 143.55 C1.17 141.01 1.17 141.01 0 139 C-0.1 137.34 -0.13 135.68 -0.13 134.02 C-0.13 132.98 -0.14 131.94 -0.14 130.87 C-0.14 129.75 -0.13 128.62 -0.13 127.46 C-0.13 126.3 -0.13 125.14 -0.14 123.95 C-0.14 121.5 -0.13 119.04 -0.13 116.59 C-0.13 112.85 -0.13 109.1 -0.14 105.36 C-0.14 102.97 -0.13 100.59 -0.13 98.21 C-0.13 97.09 -0.14 95.97 -0.14 94.82 C-0.12 89.43 0.09 84.31 1 79 C1.04 77.38 1.04 75.75 1 74.12 C0.96 72.75 0.95 71.37 1 70 C1.5 69.5 1.5 69.5 2 69 C2.13 66.86 2.18 64.71 2.19 62.56 C2.2 61.39 2.22 60.21 2.23 59 C2.15 56.12 1.7 53.55 1.03 50.75 C-0.75 42.44 -0.47 33.84 -0.62 25.38 C-0.66 23.59 -0.7 21.8 -0.74 20.02 C-0.84 15.68 -0.92 11.34 -1 7 C-0.34 7 0.32 7 1 7 C0.67 4.69 0.34 2.38 0 0 Z M3 51 C2.67 51.66 2.34 52.32 2 53 C2.66 53 3.32 53 4 53 C3.67 52.34 3.34 51.68 3 51 Z " fill="#696D6F" transform="translate(426,360)"/>
<path d="M0 0 C86.62 0.5 86.62 0.5 175 1 C175.33 1.99 175.66 2.98 176 4 C175.34 4 174.68 4 174 4 C174 4.66 174 5.32 174 6 C173.28 5.99 172.57 5.99 171.83 5.98 C154.24 5.86 136.66 5.73 119.07 5.61 C110.57 5.55 102.06 5.49 93.56 5.43 C86.13 5.37 78.71 5.32 71.28 5.27 C66.61 5.24 61.93 5.2 57.26 5.17 C54.31 5.15 51.37 5.13 48.43 5.11 C46.31 5.09 44.2 5.07 42.09 5.06 C35.39 5.01 28.69 5 21.98 5.09 C20.1 5.11 20.1 5.11 18.18 5.13 C15.83 5.16 13.47 5.2 11.12 5.25 C9.58 5.27 9.58 5.27 8 5.29 C7.1 5.3 6.2 5.32 5.28 5.34 C3 5 3 5 1.19 3.61 C0 2 0 2 0 0 Z " fill="#090B0C" transform="translate(430,825)"/>
<path d="M0 0 C0.33 0 0.66 0 1 0 C1 59.73 1 119.46 1 181 C0.34 181 -0.32 181 -1 181 C-1.77 176.24 -2.13 171.68 -2.13 166.87 C-2.14 166.18 -2.14 165.5 -2.14 164.8 C-2.15 162.53 -2.15 160.26 -2.15 157.99 C-2.15 156.35 -2.15 154.72 -2.16 153.08 C-2.16 148.65 -2.17 144.23 -2.17 139.8 C-2.17 137.03 -2.17 134.26 -2.17 131.49 C-2.18 121.83 -2.19 112.17 -2.19 102.51 C-2.18 93.51 -2.2 84.51 -2.21 75.51 C-2.22 67.77 -2.23 60.04 -2.23 52.3 C-2.23 47.69 -2.23 43.07 -2.24 38.45 C-2.25 34.11 -2.25 29.77 -2.24 25.43 C-2.24 23.84 -2.25 22.25 -2.25 20.66 C-2.26 18.49 -2.25 16.31 -2.25 14.13 C-2.25 12.92 -2.25 11.7 -2.25 10.45 C-1.98 6.66 -1.16 3.61 0 0 Z " fill="#000102" transform="translate(428,559)"/>
<path d="M0 0 C0.33 0 0.66 0 1 0 C1.13 40.18 1.26 80.35 1.38 120.53 C1.4 125.33 1.41 130.13 1.43 134.93 C1.43 135.89 1.43 136.84 1.44 137.82 C1.48 151.19 1.52 164.55 1.56 177.91 C1.64 200.93 1.71 223.95 1.78 246.97 C1.78 247.87 1.79 248.76 1.79 249.68 C1.96 304.45 2.09 359.23 2 414 C1.01 414 0.02 414 -1 414 C-1.07 354.81 -0.97 295.62 -0.78 236.43 C-0.78 235.57 -0.78 234.71 -0.77 233.82 C-0.7 211.74 -0.63 189.66 -0.55 167.57 C-0.51 154.76 -0.47 141.95 -0.43 129.14 C-0.42 128.23 -0.42 127.31 -0.42 126.37 C-0.4 121.78 -0.39 117.18 -0.37 112.59 C-0.25 75.06 -0.13 37.53 0 0 Z " fill="#D6DEE0" transform="translate(446,363)"/>
<path d="M0 0 C0.66 0 1.32 0 2 0 C2.02 19.56 2.04 39.12 2.05 58.68 C2.06 67.76 2.06 76.84 2.08 85.93 C2.09 93.85 2.09 101.77 2.09 109.7 C2.1 113.89 2.1 118.07 2.11 122.26 C2.11 126.22 2.11 130.17 2.11 134.13 C2.11 135.57 2.12 137.01 2.12 138.45 C2.14 148.02 1.75 157.47 1 167 C0.67 167 0.34 167 0 167 C-0.81 128.12 -1.11 89.25 -1.12 50.36 C-1.13 46.93 -1.13 43.49 -1.13 40.06 C-1.14 34.61 -1.14 29.16 -1.13 23.72 C-1.13 21.68 -1.13 19.65 -1.14 17.62 C-1.14 14.83 -1.13 12.04 -1.13 9.25 C-1.13 8.42 -1.13 7.59 -1.14 6.74 C-1.11 1.11 -1.11 1.11 0 0 Z " fill="#000102" transform="translate(640,555)"/>
<path d="M0 0 C2.45 -0.29 4.66 -0.39 7.11 -0.36 C8.22 -0.36 8.22 -0.36 9.36 -0.37 C11.85 -0.37 14.35 -0.36 16.84 -0.34 C18.63 -0.34 20.41 -0.34 22.19 -0.34 C27.05 -0.34 31.9 -0.33 36.75 -0.3 C41.82 -0.29 46.89 -0.28 51.95 -0.28 C61.56 -0.27 71.16 -0.25 80.76 -0.22 C91.69 -0.18 102.62 -0.17 113.54 -0.15 C136.03 -0.12 158.51 -0.07 181 0 C180.34 0.33 179.68 0.66 179 1 C179 1.66 179 2.32 179 3 C119.27 3 59.54 3 -2 3 C-1.34 2.01 -0.68 1.02 0 0 Z " fill="#8D9497" transform="translate(639,358)"/>
<path d="M0 0 C0.99 0 1.98 0 3 0 C3.01 0.93 3.01 0.93 3.01 1.88 C3.12 17 3.22 32.11 3.34 47.23 C3.39 54.53 3.45 61.84 3.5 69.15 C3.54 75.52 3.59 81.89 3.64 88.26 C3.66 91.63 3.69 95.01 3.71 98.38 C3.73 102.14 3.76 105.9 3.79 109.67 C3.8 110.79 3.81 111.91 3.81 113.07 C3.82 114.09 3.83 115.11 3.84 116.17 C3.85 117.06 3.85 117.95 3.86 118.86 C3.86 121.05 3.86 121.05 5 123 C3.06 122.19 3.06 122.19 1 121 C0.04 118.11 -0.14 116.25 -0.16 113.25 C-0.18 112.27 -0.19 111.29 -0.2 110.29 C-0.21 109.22 -0.21 108.15 -0.22 107.04 C-0.23 105.91 -0.24 104.79 -0.26 103.62 C-0.29 99.88 -0.32 96.14 -0.35 92.4 C-0.37 89.81 -0.4 87.22 -0.42 84.63 C-0.47 79.19 -0.52 73.76 -0.56 68.32 C-0.61 62.04 -0.66 55.75 -0.72 49.46 C-0.78 43.42 -0.83 37.37 -0.88 31.33 C-0.9 28.75 -0.93 26.18 -0.95 23.6 C-0.98 20.01 -1.01 16.42 -1.04 12.83 C-1.05 11.76 -1.06 10.68 -1.07 9.58 C-1.08 8.6 -1.08 7.63 -1.09 6.62 C-1.1 5.77 -1.1 4.92 -1.11 4.05 C-1 2 -1 2 0 0 Z " fill="#000102" transform="translate(731,463)"/>
<path d="M0 0 C0.33 0 0.66 0 1 0 C1.79 12.8 2.14 25.53 2.1 38.36 C2.1 39.92 2.1 41.49 2.09 43.06 C2.09 48.77 2.08 54.48 2.06 60.19 C2.04 73 2.02 85.8 2 99 C48.53 99.5 48.53 99.5 96 100 C95.67 100.66 95.34 101.32 95 102 C82.78 101.92 70.56 101.82 58.34 101.71 C52.66 101.66 46.99 101.62 41.31 101.58 C35.84 101.54 30.37 101.5 24.89 101.44 C22.8 101.42 20.71 101.41 18.62 101.4 C15.7 101.38 12.78 101.35 9.86 101.32 C8.98 101.32 8.11 101.31 7.21 101.31 C1.23 101.23 1.23 101.23 -1 99 C-1.19 96.5 -1.26 94.12 -1.24 91.62 C-1.24 90.86 -1.25 90.1 -1.25 89.32 C-1.25 86.78 -1.24 84.25 -1.23 81.72 C-1.23 79.95 -1.23 78.18 -1.23 76.41 C-1.23 72.68 -1.22 68.96 -1.21 65.23 C-1.19 60.51 -1.18 55.78 -1.19 51.06 C-1.19 47.39 -1.18 43.72 -1.17 40.06 C-1.17 38.32 -1.17 36.58 -1.17 34.84 C-1.16 23.2 -0.76 11.62 0 0 Z " fill="#777E81" transform="translate(638,830)"/>
<path d="M0 0 C0 33.99 0 67.98 0 103 C-0.66 103 -1.32 103 -2 103 C-2 70.33 -2 37.66 -2 4 C-12.89 4 -23.78 4 -35 4 C-36.32 3.34 -37.64 2.68 -39 2 C-27.36 -3.82 -13.02 0 0 0 Z " fill="#010203" transform="translate(734,826)"/>
<path d="M0 0 C12.87 -0.05 25.75 -0.08 38.62 -0.1 C44.6 -0.11 50.57 -0.13 56.55 -0.15 C62.32 -0.17 68.08 -0.18 73.84 -0.19 C76.05 -0.19 78.25 -0.2 80.45 -0.21 C83.53 -0.23 86.61 -0.23 89.69 -0.23 C90.6 -0.23 91.52 -0.24 92.47 -0.25 C93.3 -0.25 94.14 -0.24 95 -0.24 C96.09 -0.24 96.09 -0.24 97.21 -0.25 C99 0 99 0 101 2 C94.52 2.74 88.12 3.16 81.6 3.21 C80.28 3.22 80.28 3.22 78.94 3.24 C76.07 3.27 73.2 3.29 70.34 3.32 C68.33 3.34 66.33 3.36 64.33 3.38 C59.08 3.43 53.84 3.48 48.59 3.53 C43.23 3.58 37.87 3.64 32.5 3.69 C22 3.8 11.5 3.9 1 4 C0.67 4.66 0.34 5.32 0 6 C0 4.02 0 2.04 0 0 Z " fill="#636A6C" transform="translate(328,358)"/>
<path d="M0 0 C0.33 0 0.66 0 1 0 C1.03 7.1 1.04 14.2 1.05 21.31 C1.06 23.73 1.07 26.14 1.08 28.56 C1.09 32.03 1.09 35.5 1.1 38.96 C1.1 40.05 1.11 41.14 1.11 42.26 C1.11 43.26 1.11 44.27 1.11 45.3 C1.12 46.18 1.12 47.07 1.12 47.98 C1 50 1 50 0 51 C0.33 51 0.66 51 1 51 C1 61.89 1 72.78 1 84 C-0.49 84.5 -0.49 84.5 -2 85 C-3 84 -3 84 -3.1 81.93 C-3.08 80.7 -3.08 80.7 -3.06 79.44 C-3.05 78.61 -3.04 77.78 -3.04 76.93 C-3.02 76.3 -3.01 75.66 -3 75 C-3.99 75 -4.98 75 -6 75 C-6.12 71.23 -6.19 67.46 -6.25 63.69 C-6.28 62.62 -6.32 61.54 -6.35 60.44 C-6.36 59.41 -6.38 58.38 -6.39 57.32 C-6.41 56.38 -6.43 55.43 -6.45 54.45 C-6.3 53.64 -6.15 52.83 -6 52 C-5.01 51.33 -5.01 51.33 -4 50.64 C-1.81 49.19 -1.81 49.19 -1.52 46.85 C-1.53 46.03 -1.54 45.2 -1.55 44.34 C-1.55 43.4 -1.55 42.46 -1.55 41.49 C-1.58 39.98 -1.58 39.98 -1.61 38.43 C-1.62 36.87 -1.62 36.87 -1.63 35.28 C-1.65 31.96 -1.7 28.63 -1.75 25.31 C-1.77 23.06 -1.79 20.81 -1.8 18.56 C-1.85 13.04 -1.92 7.52 -2 2 C-1.34 2 -0.68 2 0 2 C0 1.34 0 0.68 0 0 Z " fill="#282B2C" transform="translate(430,741)"/>
<path d="M0 0 C23.24 -0.05 46.47 -0.08 69.71 -0.1 C80.49 -0.11 91.28 -0.13 102.07 -0.15 C111.47 -0.17 120.88 -0.18 130.28 -0.19 C135.26 -0.19 140.24 -0.2 145.22 -0.21 C149.9 -0.23 154.59 -0.23 159.28 -0.23 C161 -0.23 162.71 -0.23 164.43 -0.24 C166.78 -0.25 169.13 -0.25 171.48 -0.24 C173.45 -0.24 173.45 -0.24 175.47 -0.25 C178.98 -0 181.73 0.73 185 2 C182.67 4.16 181.49 4.98 178.27 5.09 C177.24 4.97 176.21 4.85 175.14 4.72 C167.99 3.99 160.87 3.68 153.69 3.44 C152.46 3.39 151.23 3.35 149.96 3.31 C146.98 3.2 143.99 3.1 141 3 C141 2.34 141 1.68 141 1 C94.47 1 47.94 1 0 1 C0 0.67 0 0.34 0 0 Z " fill="#0F1718" transform="translate(648,360)"/>
<path d="M0 0 C0.66 0 1.32 0 2 0 C1.67 34.65 1.34 69.3 1 105 C0.01 105.5 0.01 105.5 -1 106 C-1.02 92.33 -1.04 78.65 -1.05 64.98 C-1.06 58.63 -1.06 52.28 -1.08 45.94 C-1.09 39.82 -1.09 33.69 -1.09 27.57 C-1.1 25.23 -1.1 22.89 -1.11 20.55 C-1.11 17.28 -1.11 14.02 -1.11 10.75 C-1.12 9.77 -1.12 8.8 -1.12 7.79 C-1.12 6.9 -1.12 6.02 -1.12 5.11 C-1.12 4.33 -1.12 3.56 -1.12 2.76 C-1 1 -1 1 0 0 Z " fill="#05090A" transform="translate(640,450)"/>
<path d="M0 0 C2.69 2.69 2.24 4.75 2.25 8.4 C2.24 9.3 2.23 10.2 2.23 11.13 C2.23 12.08 2.23 13.02 2.23 14 C2.23 17.14 2.21 20.28 2.2 23.41 C2.19 25.59 2.19 27.76 2.19 29.93 C2.18 35.65 2.16 41.38 2.14 47.1 C2.12 52.94 2.11 58.78 2.1 64.62 C2.08 76.08 2.04 87.54 2 99 C1.01 99 0.02 99 -1 99 C-1.02 86.24 -1.04 73.48 -1.05 60.72 C-1.06 54.79 -1.06 48.87 -1.08 42.95 C-1.09 37.23 -1.09 31.52 -1.09 25.81 C-1.1 23.62 -1.1 21.44 -1.11 19.25 C-1.11 16.21 -1.11 13.16 -1.11 10.11 C-1.12 9.2 -1.12 8.28 -1.12 7.34 C-1.11 1.11 -1.11 1.11 0 0 Z " fill="#91979A" transform="translate(446,678)"/>
<path d="M0 0 C0.33 0 0.66 0 1 0 C1 2.31 1 4.62 1 7 C1.66 7 2.32 7 3 7 C3.05 15.83 3.08 24.66 3.1 33.49 C3.11 37.6 3.13 41.7 3.15 45.8 C3.17 49.75 3.18 53.71 3.19 57.66 C3.19 59.17 3.2 60.68 3.21 62.2 C3.23 64.31 3.23 66.42 3.23 68.53 C3.23 69.73 3.24 70.94 3.24 72.18 C3 75 3 75 1 77 C0.14 72.54 -0.12 68.34 -0.11 63.8 C-0.11 63.11 -0.11 62.41 -0.11 61.7 C-0.11 59.43 -0.11 57.16 -0.1 54.88 C-0.1 53.3 -0.09 51.72 -0.09 50.13 C-0.09 45.98 -0.08 41.83 -0.07 37.68 C-0.06 33.43 -0.05 29.19 -0.05 24.95 C-0.04 16.63 -0.02 8.32 0 0 Z " fill="#555C60" transform="translate(637,649)"/>
<path d="M0 0 C2.58 0.08 5.17 0.15 7.75 0.21 C9.43 0.26 11.1 0.3 12.78 0.35 C13.53 0.37 14.29 0.39 15.07 0.41 C20.3 0.58 25.43 1.07 30.62 1.7 C30.62 2.03 30.62 2.36 30.62 2.7 C19.24 4.7 8.07 6.01 -3.5 6.08 C-4.54 6.09 -5.57 6.11 -6.64 6.12 C-7.61 6.11 -8.57 6.11 -9.57 6.1 C-10.43 6.1 -11.28 6.09 -12.16 6.09 C-14.86 5.62 -15.53 4.64 -17.38 2.7 C-20.17 2.33 -22.76 2.1 -25.56 2.02 C-26.31 1.98 -27.06 1.95 -27.83 1.91 C-29.68 1.83 -31.53 1.76 -33.38 1.7 C-33.38 1.37 -33.38 1.04 -33.38 0.7 C-22.2 -0.22 -11.2 -0.34 0 0 Z " fill="#2C2F31" transform="translate(771.375244140625,582.296875)"/>
<path d="M0 0 C1.14 0 2.28 0 3.46 0 C4.69 0.01 5.92 0.01 7.19 0.02 C8.45 0.02 9.71 0.02 11.01 0.02 C14.36 0.02 17.71 0.03 21.06 0.04 C24.47 0.06 27.89 0.06 31.31 0.06 C38.02 0.08 44.72 0.09 51.43 0.11 C48.14 2.74 46.35 3.51 42.11 3.63 C41.05 3.66 39.99 3.7 38.89 3.73 C37.18 3.77 37.18 3.77 35.43 3.8 C33.66 3.85 33.66 3.85 31.86 3.9 C18.72 4.24 5.57 4.21 -7.57 4.11 C-7.9 3.12 -8.23 2.13 -8.57 1.11 C-5.44 0.07 -3.28 -0.01 0 0 Z " fill="#212425" transform="translate(647.572998046875,825.886474609375)"/>
<path d="M0 0 C0.33 0 0.66 0 1 0 C2.24 15.96 3.21 31.86 3.19 47.88 C3.19 49.16 3.19 50.44 3.19 51.76 C3.16 57.47 2.98 63.06 2.25 68.73 C1.72 73.49 1.62 78.28 1.44 83.06 C1.39 84.12 1.35 85.18 1.31 86.26 C1.2 88.84 1.1 91.42 1 94 C0.34 94 -0.32 94 -1 94 C-1.02 83.37 -1.04 72.74 -1.05 62.1 C-1.06 57.17 -1.06 52.23 -1.08 47.29 C-1.09 42.52 -1.09 37.75 -1.09 32.97 C-1.1 31.16 -1.1 29.35 -1.11 27.53 C-1.13 18.31 -1.14 9.18 0 0 Z " fill="#000102" transform="translate(640,832)"/>
<path d="M0 0 C0.66 0 1.32 0 2 0 C2.03 6.9 2.04 13.79 2.05 20.69 C2.06 23.03 2.07 25.36 2.08 27.7 C2.13 42.17 1.91 56.56 1 71 C0.01 71.5 0.01 71.5 -1 72 C-1.02 62.76 -1.04 53.52 -1.05 44.28 C-1.06 39.99 -1.06 35.7 -1.08 31.41 C-1.09 27.27 -1.09 23.14 -1.09 19 C-1.1 17.42 -1.1 15.84 -1.11 14.25 C-1.11 12.05 -1.11 9.84 -1.11 7.63 C-1.12 6.37 -1.12 5.11 -1.12 3.82 C-1 1 -1 1 0 0 Z " fill="#000102" transform="translate(640,555)"/>
<path d="M0 0 C1.65 0 3.3 0 5 0 C4.67 0.66 4.34 1.32 4 2 C3.88 3.54 3.82 5.09 3.79 6.63 C3.77 7.59 3.75 8.55 3.73 9.54 C3.72 10.58 3.7 11.62 3.68 12.7 C3.66 13.76 3.64 14.82 3.62 15.92 C3.56 19.32 3.5 22.72 3.44 26.12 C3.39 28.43 3.35 30.73 3.31 33.04 C3.2 38.69 3.1 44.34 3 50 C3.66 50 4.32 50 5 50 C4.67 50.66 4.34 51.32 4 52 C2.51 52.5 2.51 52.5 1 53 C0.2 47.28 -0.19 41.68 -0.32 35.91 C-0.34 35.07 -0.36 34.24 -0.38 33.38 C-0.44 30.76 -0.5 28.13 -0.56 25.5 C-0.61 23.71 -0.65 21.91 -0.69 20.12 C-0.8 15.74 -0.9 11.37 -1 7 C-0.34 7 0.32 7 1 7 C0.67 4.69 0.34 2.38 0 0 Z " fill="#020305" transform="translate(426,360)"/>
<path d="M0 0 C0.02 4.2 0.04 8.4 0.05 12.6 C0.06 14.03 0.07 15.45 0.08 16.88 C0.09 18.94 0.09 20.99 0.1 23.05 C0.1 24.28 0.11 25.52 0.11 26.79 C-0.02 30.59 -0.81 33.42 -2 37 C-2.66 37 -3.32 37 -4 37 C-5.2 33.18 -5.22 29.35 -5.32 25.39 C-5.34 24.66 -5.36 23.94 -5.38 23.19 C-5.44 20.88 -5.5 18.56 -5.56 16.25 C-5.61 14.68 -5.65 13.11 -5.69 11.54 C-5.8 7.69 -5.9 3.85 -6 0 C-3.51 -1.25 -2.59 -0.78 0 0 Z " fill="#2D3031" transform="translate(736,689)"/>
<path d="M0 0 C9.9 0.33 19.8 0.66 30 1 C29.67 1.66 29.34 2.32 29 3 C29.33 3.99 29.66 4.98 30 6 C23.68 6.8 17.5 7.18 11.12 7.19 C9.86 7.21 9.86 7.21 8.58 7.22 C7.77 7.23 6.96 7.23 6.13 7.23 C5.41 7.23 4.69 7.24 3.94 7.24 C2 7 2 7 -1 5 C-0.67 3.35 -0.34 1.7 0 0 Z M1 2 C1 2.33 1 2.66 1 3 C9.58 3 18.16 3 27 3 C27 2.67 27 2.34 27 2 C18.42 2 9.84 2 1 2 Z " fill="#282B2C" transform="translate(606,723)"/>
<path d="M0 0 C3.95 0.12 7.89 0.24 11.84 0.37 C13.83 0.44 15.82 0.5 17.81 0.56 C24.91 0.79 31.94 1.15 39 2 C38.67 2.66 38.34 3.32 38 4 C30.81 5.37 23.49 5.22 16.19 5.25 C14.96 5.27 13.73 5.29 12.47 5.31 C11.3 5.32 10.13 5.32 8.92 5.33 C7.85 5.34 6.79 5.35 5.69 5.36 C3 5 3 5 1.13 3.6 C0 2 0 2 0 0 Z " fill="#000102" transform="translate(430,825)"/>
<path d="M0 0 C0.76 -0 1.52 -0.01 2.3 -0.01 C3.9 -0.02 5.51 -0.02 7.11 -0.02 C9.55 -0.02 12 -0.04 14.44 -0.06 C16 -0.06 17.56 -0.06 19.12 -0.06 C19.85 -0.07 20.58 -0.08 21.32 -0.08 C25.68 -0.06 29.21 0.57 33.26 2.17 C30.94 4.33 29.75 5.15 26.53 5.26 C25.5 5.14 24.47 5.02 23.41 4.89 C16.25 4.15 9.14 3.85 1.95 3.61 C0.72 3.56 -0.51 3.52 -1.78 3.47 C-4.76 3.37 -7.75 3.27 -10.74 3.17 C-10.74 2.51 -10.74 1.85 -10.74 1.17 C-7.11 -0.04 -3.78 0.01 0 0 Z " fill="#131517" transform="translate(799.73828125,359.83203125)"/>
<path d="M0 0 C1.65 0 3.3 0 5 0 C5.33 1.32 5.66 2.64 6 4 C7.65 3.67 9.3 3.34 11 3 C11.21 3.54 11.41 4.07 11.62 4.62 C13.28 7.48 15.35 9.41 17.76 11.63 C19 13 19 13 19 15 C19.99 15.33 20.98 15.66 22 16 C21.34 17.32 20.68 18.64 20 20 C17.13 18.71 15.02 17.43 13 15 C13 14.34 13 13.68 13 13 C12.34 13 11.68 13 11 13 C11 12.34 11 11.68 11 11 C10.34 11 9.68 11 9 11 C7.38 9.62 7.38 9.62 6 8 C6 7.34 6 6.68 6 6 C5.38 5.69 4.76 5.38 4.12 5.06 C2.75 4.38 1.38 3.69 0 3 C0 2.01 0 1.02 0 0 Z " fill="#4E5254" transform="translate(823,471)"/>
<path d="M0 0 C0.66 0.33 1.32 0.66 2 1 C3.45 1.09 4.9 1.12 6.36 1.11 C7.26 1.11 8.16 1.11 9.09 1.11 C10.06 1.11 11.04 1.1 12.04 1.1 C13.04 1.1 14.03 1.09 15.06 1.09 C18.25 1.09 21.44 1.08 24.62 1.06 C26.78 1.06 28.94 1.05 31.1 1.05 C36.4 1.04 41.7 1.02 47 1 C47 1.66 47 2.32 47 3 C45.85 3.03 44.7 3.05 43.52 3.08 C39.23 3.17 34.95 3.27 30.67 3.37 C28.82 3.42 26.97 3.46 25.12 3.5 C22.45 3.56 19.78 3.62 17.12 3.68 C16.3 3.7 15.47 3.72 14.63 3.73 C11.18 3.82 7.96 4.01 4.56 4.58 C2 5 2 5 0 4 C0 6.64 0 9.28 0 12 C-0.33 12 -0.66 12 -1 12 C-1.03 10.19 -1.05 8.38 -1.06 6.56 C-1.07 5.55 -1.09 4.54 -1.1 3.5 C-1 1 -1 1 0 0 Z " fill="#070C0D" transform="translate(556,359)"/>
<path d="M0 0 C0.33 0 0.66 0 1 0 C1.05 6.8 1.09 13.6 1.11 20.4 C1.12 22.71 1.13 25.03 1.15 27.34 C1.18 30.66 1.19 33.98 1.2 37.3 C1.21 38.34 1.22 39.38 1.23 40.46 C1.23 41.42 1.23 42.38 1.23 43.37 C1.23 44.21 1.24 45.06 1.24 45.94 C1 48 1 48 -1 50 C-2.08 37.19 -2.12 24.64 -1.56 11.81 C-1.52 10.88 -1.48 9.94 -1.44 8.98 C-1.4 8.11 -1.36 7.23 -1.32 6.33 C-1.26 5.15 -1.26 5.15 -1.21 3.95 C-1 2 -1 2 0 0 Z " fill="#030607" transform="translate(604,389)"/>
<path d="M0 0 C0.33 0 0.66 0 1 0 C1 33.66 1 67.32 1 102 C0.67 102 0.34 102 0 102 C0 68.34 0 34.68 0 0 Z " fill="#D6DEE0" transform="translate(735,827)"/>
<path d="M0 0 C15.18 0 30.36 0 46 0 C46 0.99 46 1.98 46 3 C45.44 3 44.88 3 44.31 2.99 C38.5 2.97 32.69 2.96 26.88 2.95 C24.71 2.94 22.55 2.93 20.38 2.92 C17.26 2.91 14.15 2.91 11.04 2.9 C10.07 2.9 9.09 2.89 8.09 2.89 C6.74 2.89 6.74 2.89 5.36 2.89 C4.56 2.88 3.77 2.88 2.95 2.88 C0.92 2.88 0.92 2.88 -1 4 C-0.67 2.68 -0.34 1.36 0 0 Z " fill="#848A8C" transform="translate(447,358)"/>
<path d="M0 0 C0.99 0 1.98 0 3 0 C3.66 0.66 4.32 1.32 5 2 C6.3 2.74 6.3 2.74 7.62 3.5 C8.41 4 9.19 4.49 10 5 C10 5.66 10 6.32 10 7 C11.65 7.33 13.3 7.66 15 8 C13.69 10 13.69 10 12 12 C11.01 12 10.02 12 9 12 C8.67 11.34 8.34 10.68 8 10 C7.34 10 6.68 10 6 10 C6 9.34 6 8.68 6 8 C5.01 8 4.02 8 3 8 C3 7.34 3 6.68 3 6 C0.52 5.01 0.52 5.01 -2 4 C-2 3.34 -2 2.68 -2 2 C-1.34 2 -0.68 2 0 2 C0 1.34 0 0.68 0 0 Z " fill="#0B0C0D" transform="translate(873,378)"/>
<path d="M0 0 C5.1 1.35 8.19 4.67 11 9 C11 9.99 11 10.98 11 12 C11.99 12.66 12.98 13.32 14 14 C13.67 14.99 13.34 15.98 13 17 C12.34 17 11.68 17 11 17 C10.67 16.01 10.34 15.02 10 14 C9.28 13.44 8.56 12.89 7.81 12.31 C4.18 9.33 1.7 5.82 -1 2 C-0.67 1.34 -0.34 0.68 0 0 Z " fill="#3E4143" transform="translate(916,413)"/>
<path d="M0 0 C21.12 0 42.24 0 64 0 C64 0.33 64 0.66 64 1 C42.88 1 21.76 1 0 1 C0 0.67 0 0.34 0 0 Z " fill="#D2DADC" transform="translate(464,824)"/>
<path d="M0 0 C20.46 0 40.92 0 62 0 C62 0.33 62 0.66 62 1 C41.54 1 21.08 1 0 1 C0 0.67 0 0.34 0 0 Z " fill="#A2A9AB" transform="translate(662,824)"/>
<path d="M0 0 C2.48 0.5 2.48 0.5 5 1 C5 1.66 5 2.32 5 3 C5.64 3.64 6.28 4.28 6.94 4.94 C9 7 9 7 10 10 C10.99 11.49 10.99 11.49 12 13 C12 13.99 12 14.98 12 16 C9.27 15.64 8.21 15.24 6.37 13.14 C3.63 8.86 1.28 4.98 0 0 Z M7 8 C8 10 8 10 8 10 Z " fill="#1C1E1F" transform="translate(932,438)"/>
<path d="M0 0 C0.66 0 1.32 0 2 0 C1.67 8.58 1.34 17.16 1 26 C0.34 26.33 -0.32 26.66 -1 27 C-1.03 22.69 -1.05 18.38 -1.06 14.06 C-1.07 12.83 -1.08 11.6 -1.09 10.33 C-1.09 9.16 -1.09 7.99 -1.1 6.79 C-1.1 5.7 -1.11 4.62 -1.11 3.5 C-1 1 -1 1 0 0 Z " fill="#060A0B" transform="translate(640,600)"/>
<path d="M0 0 C0.99 0 1.97 0.01 2.99 0.01 C4.02 0.02 5.05 0.03 6.12 0.04 C7.68 0.04 7.68 0.04 9.27 0.05 C11.84 0.06 14.42 0.08 16.99 0.1 C16 0.59 16 0.59 14.99 1.1 C14.99 1.76 14.99 2.42 14.99 3.1 C11.89 3.16 8.78 3.19 5.68 3.22 C4.36 3.25 4.36 3.25 3.01 3.27 C2.16 3.28 1.31 3.29 0.44 3.29 C-0.34 3.3 -1.12 3.31 -1.92 3.32 C-4.01 3.1 -4.01 3.1 -7.01 1.1 C-4.5 -0.15 -2.8 -0.02 0 0 Z " fill="#A8AFB1" transform="translate(803.0078125,357.90234375)"/>
<path d="M0 0 C18.48 0 36.96 0 56 0 C56 0.33 56 0.66 56 1 C37.52 1 19.04 1 0 1 C0 0.67 0 0.34 0 0 Z " fill="#9CA2A4" transform="translate(538,824)"/>
<path d="M0 0 C3.15 1.36 4.97 2.84 7.12 5.5 C8.7 7.43 10.23 9.23 12 11 C8.25 12.12 8.25 12.12 6 11 C6 10.34 6 9.68 6 9 C5.01 9 4.02 9 3 9 C0.72 6.72 0.03 5.49 -0.19 2.25 C-0.13 1.51 -0.06 0.76 0 0 Z " fill="#3A3D3F" transform="translate(906,401)"/>
<path d="M0 0 C5.73 2.45 5.73 2.45 7 5 C7.99 5.66 8.98 6.32 10 7 C10 7.99 10 8.98 10 10 C6.7 9.01 3.4 8.02 0 7 C0 6.34 0 5.68 0 5 C-0.99 4.67 -1.98 4.34 -3 4 C-2.67 3.01 -2.34 2.02 -2 1 C-1.34 0.67 -0.68 0.34 0 0 Z " fill="#0D0F10" transform="translate(889,388)"/>
<path d="M0 0 C0.99 0.66 1.98 1.32 3 2 C1.61 5.35 0.11 7.11 -3 9 C-3.99 9 -4.98 9 -6 9 C-6.33 9.99 -6.66 10.98 -7 12 C-7.66 11.67 -8.32 11.34 -9 11 C-7.6 5.71 -4.15 3.23 0 0 Z " fill="#171A1C" transform="translate(915,630)"/>
<path d="M0 0 C0.33 0 0.66 0 1 0 C1.33 1.98 1.66 3.96 2 6 C2.33 6 2.66 6 3 6 C3.04 8.33 3.04 10.67 3 13 C2.67 13.33 2.34 13.66 2 14 C1.77 15.35 1.59 16.7 1.44 18.06 C1.29 19.36 1.15 20.66 1 22 C0.01 22.33 -0.98 22.66 -2 23 C-2.33 20.36 -2.66 17.72 -3 15 C-2.34 15 -1.68 15 -1 15 C-0.67 10.05 -0.34 5.1 0 0 Z " fill="#35393C" transform="translate(958,501)"/>
<path d="M0 0 C0.33 0.66 0.66 1.32 1 2 C-0.25 2.96 -1.5 3.92 -2.75 4.88 C-3.45 5.41 -4.14 5.94 -4.86 6.49 C-6.85 7.89 -8.8 8.98 -11 10 C-11 9.34 -11 8.68 -11 8 C-11.99 7.67 -12.98 7.34 -14 7 C-13.01 6.67 -12.02 6.34 -11 6 C-10.67 4.68 -10.34 3.36 -10 2 C-6.7 1.34 -3.4 0.68 0 0 Z " fill="#101314" transform="translate(834,566)"/>
<path d="M0 0 C0.33 0 0.66 0 1 0 C1 15.51 1 31.02 1 47 C0.67 47 0.34 47 0 47 C0 31.49 0 15.98 0 0 Z " fill="#D6DEE0" transform="translate(430,362)"/>
<path d="M0 0 C1.42 0.14 2.83 0.29 4.25 0.44 C5.43 0.56 5.43 0.56 6.64 0.68 C8.82 0.98 10.88 1.42 13 2 C13 2.66 13 3.32 13 4 C9.94 5.53 7.37 5.23 4 5 C1.56 3.62 1.56 3.62 0 2 C0 1.34 0 0.68 0 0 Z " fill="#383B3D" transform="translate(837,364)"/>
<path d="M0 0 C3 0 3 0 4.69 1.19 C6.49 3.68 6.35 4.96 6 8 C5.38 10.35 4.73 12.68 4 15 C3.67 15 3.34 15 3 15 C2.67 11.7 2.34 8.4 2 5 C1.34 5 0.68 5 0 5 C0 3.35 0 1.7 0 0 Z " fill="#0C0E0F" transform="translate(844,494)"/>
<path d="M0 0 C0 1.32 0 2.64 0 4 C1.32 4.33 2.64 4.66 4 5 C3.44 4.93 2.89 4.86 2.31 4.78 C-2.84 4.16 -7.81 3.91 -13 4 C-8.78 0.4 -5.47 0 0 0 Z " fill="#000203" transform="translate(826,682)"/>
<path d="M0 0 C0.33 0 0.66 0 1 0 C1 4.62 1 9.24 1 14 C0.01 14.33 -0.98 14.66 -2 15 C-2.05 12.88 -2.09 10.75 -2.12 8.62 C-2.15 7.44 -2.17 6.26 -2.2 5.04 C-2 2 -2 2 0 0 Z " fill="#414649" transform="translate(557,763)"/>
<path d="M0 0 C1.34 0.32 2.67 0.66 4 1 C6.66 1.38 9.33 1.69 12 2 C9.74 4.26 9.06 4.34 6 4.69 C5.3 4.77 4.6 4.86 3.88 4.95 C2 5 2 5 0 4 C0 6.64 0 9.28 0 12 C-0.33 12 -0.66 12 -1 12 C-1.03 10.19 -1.05 8.38 -1.06 6.56 C-1.07 5.55 -1.09 4.54 -1.1 3.5 C-1 1 -1 1 0 0 Z " fill="#05090A" transform="translate(556,359)"/>
<path d="M0 0 C2.93 0.63 5.48 1.35 8 3 C8.75 5.12 8.75 5.12 9 7 C6.69 7 4.38 7 2 7 C1.34 4.69 0.68 2.38 0 0 Z " fill="#212425" transform="translate(864,373)"/>
<path d="M0 0 C0.66 0.33 1.32 0.66 2 1 C0.38 3 0.38 3 -2 5 C-5.25 5.25 -5.25 5.25 -8 5 C-8 5.99 -8 6.98 -8 8 C-7.34 8.33 -6.68 8.66 -6 9 C-8.31 8.67 -10.62 8.34 -13 8 C-13 7.34 -13 6.68 -13 6 C-12.15 5.65 -11.29 5.3 -10.41 4.94 C-9.31 4.49 -8.2 4.03 -7.06 3.56 C-5.96 3.11 -4.86 2.66 -3.72 2.19 C-1.13 1.26 -1.13 1.26 0 0 Z " fill="#000102" transform="translate(874,665)"/>
<path d="M0 0 C0.66 0.66 1.32 1.32 2 2 C1.34 2 0.68 2 0 2 C0.66 3.32 1.32 4.64 2 6 C2.66 6 3.32 6 4 6 C3.67 7.65 3.34 9.3 3 11 C2.01 11 1.02 11 0 11 C-1.83 7.23 -2.23 5.03 -1 1 C-0.67 0.67 -0.34 0.34 0 0 Z " fill="#0A0B0D" transform="translate(949,464)"/>
<path d="M0 0 C0.66 0.33 1.32 0.66 2 1 C1.01 2.49 1.01 2.49 0 4 C-0.17 6.63 -0.17 6.63 0 9 C-0.99 9.33 -1.98 9.66 -3 10 C-2.67 10.99 -2.34 11.98 -2 13 C-2.99 12.67 -3.98 12.34 -5 12 C-4.59 6.71 -3.65 3.88 0 0 Z " fill="#010304" transform="translate(940,595)"/>
<path d="M0 0 C1.5 0.01 1.5 0.01 3.04 0.03 C3.81 0.04 4.58 0.05 5.38 0.06 C5.38 0.39 5.38 0.72 5.38 1.06 C3.73 1.06 2.08 1.06 0.38 1.06 C0.71 2.05 1.03 3.04 1.38 4.06 C-5.38 3.31 -5.38 3.31 -7.62 1.06 C-4.98 -0.26 -2.95 -0.03 0 0 Z " fill="#030506" transform="translate(836.625,362.9375)"/>
<path d="M0 0 C0 0.66 0 1.32 0 2 C-0.99 2 -1.98 2 -3 2 C-3.33 3.32 -3.66 4.64 -4 6 C-5.65 6.33 -7.3 6.66 -9 7 C-6.8 2.09 -5.63 0 0 0 Z " fill="#3B4143" transform="translate(838,561)"/>
<path d="M0 0 C4.95 0.99 4.95 0.99 10 2 C9.67 2.99 9.34 3.98 9 5 C8.01 5.33 7.02 5.66 6 6 C6 5.34 6 4.68 6 4 C4.35 4 2.7 4 1 4 C0.67 2.68 0.34 1.36 0 0 Z " fill="#181A1C" transform="translate(807,462)"/>
<path d="M0 0 C6.93 0 13.86 0 21 0 C21 0.33 21 0.66 21 1 C14.07 1 7.14 1 0 1 C0 0.67 0 0.34 0 0 Z " fill="#ADB3B5" transform="translate(442,824)"/>
<path d="M0 0 C2.97 0.33 5.94 0.66 9 1 C9 1.33 9 1.66 9 2 C6.03 2 3.06 2 0 2 C0 1.34 0 0.68 0 0 Z " fill="#6B6F71" transform="translate(432,823)"/>
<path d="M0 0 C0 0.99 0 1.98 0 3 C-1.98 3.99 -1.98 3.99 -4 5 C-2.68 3.35 -1.36 1.7 0 0 Z " fill="#D6DEE0" transform="translate(916,636)"/>
<path d="M0 0 C2.64 0 5.28 0 8 0 C8 0.33 8 0.66 8 1 C5.36 1 2.72 1 0 1 C0 0.67 0 0.34 0 0 Z " fill="#6B6F71" transform="translate(725,824)"/>
<path d="M0 0 C2.64 0 5.28 0 8 0 C8 0.33 8 0.66 8 1 C5.36 1 2.72 1 0 1 C0 0.67 0 0.34 0 0 Z " fill="#858B8C" transform="translate(529,824)"/>
<path d="M0 0 C0.66 0.33 1.32 0.66 2 1 C0.68 2.32 -0.64 3.64 -2 5 C-1.34 3.35 -0.68 1.7 0 0 Z " fill="#D6DEE0" transform="translate(942,596)"/>
<path d="M0 0 C0.33 0 0.66 0 1 0 C1 2.64 1 5.28 1 8 C0.67 8 0.34 8 0 8 C0 5.36 0 2.72 0 0 Z " fill="#D6DEE0" transform="translate(960,516)"/>
<path d="M0 0 C2.31 0 4.62 0 7 0 C7 0.33 7 0.66 7 1 C4.69 1 2.38 1 0 1 C0 0.67 0 0.34 0 0 Z " fill="#3D4041" transform="translate(596,824)"/>
<path d="M0 0 C1.65 0 3.3 0 5 0 C5 0.33 5 0.66 5 1 C3.35 1 1.7 1 0 1 C0 0.67 0 0.34 0 0 Z " fill="#000102" transform="translate(656,824)"/>
<path d="M0 0 C0 0.99 0 1.98 0 3 C-0.66 2.67 -1.32 2.34 -2 2 C-1.34 1.34 -0.68 0.68 0 0 Z " fill="#D6DEE0" transform="translate(874,668)"/>
<path d="M0 0 C0.66 0.33 1.32 0.66 2 1 C1.34 1.66 0.68 2.32 0 3 C0 2.01 0 1.02 0 0 Z " fill="#7B8386" transform="translate(886,661)"/>
<path d="M0 0 C0 0.99 0 1.98 0 3 C-0.66 2.67 -1.32 2.34 -2 2 C-1.34 1.34 -0.68 0.68 0 0 Z " fill="#D6DEE0" transform="translate(909,643)"/>
<path d="M0 0 C1.65 0 3.3 0 5 0 C5 0.33 5 0.66 5 1 C3.35 1 1.7 1 0 1 C0 0.67 0 0.34 0 0 Z " fill="#D6DEE0" transform="translate(802,464)"/>
<path d="M0 0 C0.66 0 1.32 0 2 0 C1.67 0.99 1.34 1.98 1 3 C0.67 2.01 0.34 1.02 0 0 Z " fill="#4B4F51" transform="translate(877,666)"/>
<path d="M0 0 C0.99 0.5 0.99 0.5 2 1 C1.01 1.5 1.01 1.5 0 2 C0 1.34 0 0.68 0 0 Z " fill="#D6DEE0" transform="translate(857,676)"/>
<path d="M0 0 C0.66 0 1.32 0 2 0 C1.67 0.66 1.34 1.32 1 2 C0.67 1.34 0.34 0.68 0 0 Z " fill="#82898C" transform="translate(867,671)"/>
<path d="M0 0 C0.66 0 1.32 0 2 0 C1.67 0.66 1.34 1.32 1 2 C0.67 1.34 0.34 0.68 0 0 Z " fill="#222729" transform="translate(875,667)"/>
<path d="M0 0 C0.33 0.66 0.66 1.32 1 2 C0.34 1.67 -0.32 1.34 -1 1 C-0.67 0.67 -0.34 0.34 0 0 Z " fill="#D6DEE0" transform="translate(883,664)"/>
<path d="M0 0 C0.33 0.66 0.66 1.32 1 2 C0.34 1.67 -0.32 1.34 -1 1 C-0.67 0.67 -0.34 0.34 0 0 Z " fill="#D6DEE0" transform="translate(903,649)"/>
<path d="M0 0 C0.33 0.66 0.66 1.32 1 2 C0.34 1.67 -0.32 1.34 -1 1 C-0.67 0.67 -0.34 0.34 0 0 Z " fill="#D6DEE0" transform="translate(906,646)"/>
<path d="M0 0 C0.33 0.66 0.66 1.32 1 2 C0.34 1.67 -0.32 1.34 -1 1 C-0.67 0.67 -0.34 0.34 0 0 Z " fill="#D6DEE0" transform="translate(911,641)"/>
<path d="M0 0 C0.33 0.66 0.66 1.32 1 2 C0.34 1.67 -0.32 1.34 -1 1 C-0.67 0.67 -0.34 0.34 0 0 Z " fill="#D6DEE0" transform="translate(931,616)"/>
<path d="" fill="#D6DEE0" transform="translate(0,0)"/>
<path d="" fill="#D6DEE0" transform="translate(0,0)"/>
<path d="" fill="#000102" transform="translate(0,0)"/>
<path d="M0 0 C0.66 0 1.32 0 2 0 C1.67 0.66 1.34 1.32 1 2 C0.67 1.34 0.34 0.68 0 0 Z " fill="#D6DEE0" transform="translate(957,498)"/>
<path d="M0 0 C0.66 0.66 1.32 1.32 2 2 C1.34 2 0.68 2 0 2 C0 1.34 0 0.68 0 0 Z " fill="#D6DEE0" transform="translate(955,485)"/>
<path d="M0 0 C0.66 0 1.32 0 2 0 C1.67 0.66 1.34 1.32 1 2 C0.67 1.34 0.34 0.68 0 0 Z " fill="#D6DEE0" transform="translate(952,475)"/>
<path d="M0 0 C0.66 0.66 1.32 1.32 2 2 C1.34 2 0.68 2 0 2 C0 1.34 0 0.68 0 0 Z " fill="#D6DEE0" transform="translate(950,467)"/>
<path d="M0 0 C3 1 3 1 3 1 Z " fill="#D6DEE0" transform="translate(809,466)"/>
<path d="M0 0 C0.66 0.66 1.32 1.32 2 2 C1.34 2 0.68 2 0 2 C0 1.34 0 0.68 0 0 Z " fill="#D6DEE0" transform="translate(934,436)"/>
<path d="M0 0 C0.66 0.66 1.32 1.32 2 2 C1.34 2 0.68 2 0 2 C0 1.34 0 0.68 0 0 Z " fill="#D6DEE0" transform="translate(932,431)"/>
<path d="M0 0 C2 1 2 1 2 1 Z " fill="#D6DEE0" transform="translate(844,681)"/>
<path d="" fill="#D6DEE0" transform="translate(0,0)"/>
<path d="M0 0 C2 1 2 1 2 1 Z " fill="#D6DEE0" transform="translate(896,655)"/>
<path d="M0 0 C2 1 2 1 2 1 Z " fill="#D6DEE0" transform="translate(924,625)"/>
<path d="" fill="#585F63" transform="translate(0,0)"/>
<path d="" fill="#D6DEE0" transform="translate(0,0)"/>
<path d="" fill="#D6DEE0" transform="translate(0,0)"/>
<path d="M0 0 C2 1 2 1 2 1 Z " fill="#D6DEE0" transform="translate(937,604)"/>
<path d="M0 0 C2 1 2 1 2 1 Z " fill="#D6DEE0" transform="translate(788,580)"/>
<path d="M0 0 C2 1 2 1 2 1 Z " fill="#D6DEE0" transform="translate(757,580)"/>
<path d="" fill="#D6DEE0" transform="translate(0,0)"/>
<path d="M0 0 C2 1 2 1 2 1 Z " fill="#D6DEE0" transform="translate(800,463)"/>
<path d="" fill="#D6DEE0" transform="translate(0,0)"/>
<path d="M0 0 C2 1 2 1 2 1 Z " fill="#D6DEE0" transform="translate(927,424)"/>
<path d="" fill="#D6DEE0" transform="translate(0,0)"/>
<path d="" fill="#000102" transform="translate(0,0)"/>
<path d="" fill="#D6DEE0" transform="translate(0,0)"/>
<path d="" fill="#D6DEE0" transform="translate(0,0)"/>
<path d="" fill="#D6DEE0" transform="translate(0,0)"/>
<path d="" fill="#D6DEE0" transform="translate(0,0)"/>
<path d="" fill="#D6DEE0" transform="translate(0,0)"/>
<path d="" fill="#D6DEE0" transform="translate(0,0)"/>
<path d="" fill="#D6DEE0" transform="translate(0,0)"/>
<path d="" fill="#D6DEE0" transform="translate(0,0)"/>
<path d="" fill="#D6DEE0" transform="translate(0,0)"/>
<path d="" fill="#D6DEE0" transform="translate(0,0)"/>
<path d="" fill="#D6DEE0" transform="translate(0,0)"/>
<path d="" fill="#D6DEE0" transform="translate(0,0)"/>
<path d="" fill="#D6DEE0" transform="translate(0,0)"/>
<path d="" fill="#D6DEE0" transform="translate(0,0)"/>
<path d="" fill="#D6DEE0" transform="translate(0,0)"/>
<path d="" fill="#D6DEE0" transform="translate(0,0)"/>
<path d="" fill="#D6DEE0" transform="translate(0,0)"/>
<path d="" fill="#D6DEE0" transform="translate(0,0)"/>
<path d="" fill="#000102" transform="translate(0,0)"/>
</svg>
